<?xml version="1.0" encoding="UTF-8"?>
<!DOCTYPE svg PUBLIC "-//W3C//DTD SVG 1.1//EN" "http://www.w3.org/Graphics/SVG/1.1/DTD/svg11.dtd">
<!-- Creator: CorelDRAW X8 -->
<svg xmlns="http://www.w3.org/2000/svg" xml:space="preserve" width="210mm" height="297mm" version="1.1" style="shape-rendering:geometricPrecision; text-rendering:geometricPrecision; image-rendering:optimizeQuality; fill-rule:evenodd; clip-rule:evenodd"
viewBox="0 0 21000 29700"
 xmlns:xlink="http://www.w3.org/1999/xlink">
 <defs>
  <style type="text/css">
   <![CDATA[
    .str1 {stroke:#004CBC;stroke-width:10.58}
    .str0 {stroke:#004CBC;stroke-width:10.58;stroke-linejoin:round}
    .fil15 {fill:none}
    .fil1 {fill:#004CBC}
    .fil3 {fill:url(#id0)}
    .fil11 {fill:url(#id1)}
    .fil10 {fill:url(#id2)}
    .fil16 {fill:url(#id3)}
    .fil9 {fill:url(#id4)}
    .fil2 {fill:url(#id5)}
    .fil12 {fill:url(#id6)}
    .fil4 {fill:url(#id7)}
    .fil0 {fill:url(#id8)}
    .fil14 {fill:url(#id9)}
    .fil19 {fill:url(#id10)}
    .fil20 {fill:url(#id11)}
    .fil5 {fill:url(#id12)}
    .fil8 {fill:url(#id13)}
    .fil17 {fill:url(#id14)}
    .fil13 {fill:url(#id15)}
    .fil18 {fill:url(#id16)}
    .fil6 {fill:url(#id17)}
    .fil7 {fill:url(#id18)}
   ]]>
  </style>
  <radialGradient id="id0" gradientUnits="userSpaceOnUse" gradientTransform="matrix(0.608936 -1.21297 1.13573 0.701955 -13415 18731)" cx="11561.7" cy="15792.5" r="26.26" fx="11561.7" fy="15792.5">
   <stop offset="0" style="stop-opacity:1; stop-color:#004CBC"/>
   <stop offset="0.729412" style="stop-opacity:1; stop-color:#B5D1E9"/>
   <stop offset="0.180392" style="stop-opacity:1; stop-color:#80A6DE"/>
   <stop offset="1" style="stop-opacity:1; stop-color:white"/>
  </radialGradient>
  <radialGradient id="id1" gradientUnits="userSpaceOnUse" gradientTransform="matrix(0.608936 -1.21297 1.13573 0.701955 -12785 18357)" xlink:href="#id0" cx="11403.1" cy="15183.4" r="26.26" fx="11403.1" fy="15183.4">
  </radialGradient>
  <radialGradient id="id2" gradientUnits="userSpaceOnUse" gradientTransform="matrix(0.608936 -1.21297 1.13573 0.701955 -11966 19430)" xlink:href="#id0" cx="12382.4" cy="14799.5" r="26.26" fx="12382.4" fy="14799.5">
  </radialGradient>
  <radialGradient id="id3" gradientUnits="userSpaceOnUse" gradientTransform="matrix(0.608936 -1.21297 1.13573 0.701955 -12453 17971)" xlink:href="#id0" cx="11175.9" cy="14813.2" r="26.26" fx="11175.9" fy="14813.2">
  </radialGradient>
  <radialGradient id="id4" gradientUnits="userSpaceOnUse" gradientTransform="matrix(0.608936 -1.21297 1.13573 0.701955 -10751 19068)" xlink:href="#id0" cx="12349.1" cy="13718.3" r="26.26" fx="12349.1" fy="13718.3">
  </radialGradient>
  <radialGradient id="id5" gradientUnits="userSpaceOnUse" gradientTransform="matrix(0.608936 -1.21297 1.13573 0.701955 -13402 17849)" xlink:href="#id0" cx="10893.8" cy="15551.6" r="26.26" fx="10893.8" fy="15551.6">
  </radialGradient>
  <radialGradient id="id6" gradientUnits="userSpaceOnUse" gradientTransform="matrix(0.608936 -1.21297 1.13573 0.701955 -11689 18389)" xlink:href="#id0" cx="11645.9" cy="14302" r="26.26" fx="11645.9" fy="14302">
  </radialGradient>
  <radialGradient id="id7" gradientUnits="userSpaceOnUse" gradientTransform="matrix(0.608936 -1.21297 1.13573 0.701955 -11689 14910)" xlink:href="#id0" cx="9001.81" cy="13391.2" r="26.26" fx="9001.81" fy="13391.2">
  </radialGradient>
  <radialGradient id="id8" gradientUnits="userSpaceOnUse" gradientTransform="matrix(0.608936 -1.21297 1.13573 0.701955 -13603 16460)" xlink:href="#id0" cx="9798.17" cy="15350.9" r="26.26" fx="9798.17" fy="15350.9">
  </radialGradient>
  <radialGradient id="id9" gradientUnits="userSpaceOnUse" gradientTransform="matrix(0.608936 -1.21297 1.13573 0.701955 -13229 15395)" xlink:href="#id0" cx="9063.13" cy="14768.6" r="26.26" fx="9063.13" fy="14768.6">
  </radialGradient>
  <radialGradient id="id10" gradientUnits="userSpaceOnUse" gradientTransform="matrix(0.608936 -1.21297 1.13573 0.701955 -12302 16105)" xlink:href="#id0" cx="9787.21" cy="14202.1" r="26.26" fx="9787.21" fy="14202.1">
  </radialGradient>
  <radialGradient id="id11" gradientUnits="userSpaceOnUse" gradientTransform="matrix(0.608936 -1.21297 1.13573 0.701955 -12636 15623)" xlink:href="#id0" cx="9354.36" cy="14347" r="26.26" fx="9354.36" fy="14347">
  </radialGradient>
  <radialGradient id="id12" gradientUnits="userSpaceOnUse" gradientTransform="matrix(0.608936 -1.21297 1.13573 0.701955 -11266 15750)" xlink:href="#id0" cx="9724.54" cy="13267.9" r="26.26" fx="9724.54" fy="13267.9">
  </radialGradient>
  <radialGradient id="id13" gradientUnits="userSpaceOnUse" gradientTransform="matrix(0.608936 -1.21297 1.13573 0.701955 -10838 18013)" xlink:href="#id0" cx="11530.4" cy="13512.7" r="26.26" fx="11530.4" fy="13512.7">
  </radialGradient>
  <radialGradient id="id14" gradientUnits="userSpaceOnUse" gradientTransform="matrix(0.608936 -1.21297 1.13573 0.701955 -12436 16925)" xlink:href="#id0" cx="10384.6" cy="14525.3" r="26.26" fx="10384.6" fy="14525.3">
  </radialGradient>
  <radialGradient id="id15" gradientUnits="userSpaceOnUse" gradientTransform="matrix(0.608936 -1.21297 1.13573 0.701955 -11600 17858)" xlink:href="#id0" cx="11260.1" cy="14090.5" r="26.26" fx="11260.1" fy="14090.5">
  </radialGradient>
  <radialGradient id="id16" gradientUnits="userSpaceOnUse" gradientTransform="matrix(0.608936 -1.21297 1.13573 0.701955 -11711 16501)" xlink:href="#id0" cx="10206.4" cy="13826" r="26.26" fx="10206.4" fy="13826">
  </radialGradient>
  <radialGradient id="id17" gradientUnits="userSpaceOnUse" gradientTransform="matrix(0.608936 -1.21297 1.13573 0.701955 -11082 16410)" xlink:href="#id0" cx="10263.2" cy="13291.4" r="26.26" fx="10263.2" fy="13291.4">
  </radialGradient>
  <radialGradient id="id18" gradientUnits="userSpaceOnUse" gradientTransform="matrix(0.608936 -1.21297 1.13573 0.701955 -10324 17325)" xlink:href="#id0" cx="11109.3" cy="12915.3" r="26.26" fx="11109.3" fy="12915.3">
  </radialGradient>
 </defs>
 <g id="Layer_x0020_1">
  <metadata id="CorelCorpID_0Corel-Layer"/>
  <g id="_2636025034432">
   <ellipse class="fil0" cx="9802" cy="15351" rx="90" ry="87"/>
   <circle class="fil1 str0" cx="9802" cy="15351" r="30"/>
  </g>
  <g id="_2636025033792">
   <ellipse class="fil2" cx="10897" cy="15552" rx="90" ry="87"/>
   <circle class="fil1 str0" cx="10897" cy="15552" r="30"/>
  </g>
  <g id="_2636025031392">
   <ellipse class="fil3" cx="11565" cy="15792" rx="90" ry="87"/>
   <circle class="fil1 str0" cx="11565" cy="15792" r="30"/>
  </g>
  <g id="_2636025031456">
   <ellipse class="fil4" cx="9005" cy="13391" rx="90" ry="87"/>
   <circle class="fil1 str0" cx="9005" cy="13391" r="30"/>
  </g>
  <g id="_2636025029792">
   <ellipse class="fil5" cx="9728" cy="13268" rx="90" ry="87"/>
   <circle class="fil1 str0" cx="9728" cy="13268" r="30"/>
  </g>
  <g id="_2636025030016">
   <ellipse class="fil6" cx="10267" cy="13291" rx="90" ry="87"/>
   <circle class="fil1 str0" cx="10267" cy="13291" r="30"/>
  </g>
  <g id="_2636025030912">
   <ellipse class="fil7" cx="11113" cy="12915" rx="90" ry="87"/>
   <circle class="fil1 str0" cx="11113" cy="12915" r="30"/>
  </g>
  <g id="_2636025028032">
   <ellipse class="fil8" cx="11534" cy="13513" rx="90" ry="87"/>
   <circle class="fil1 str0" cx="11534" cy="13513" r="30"/>
  </g>
  <g id="_2636025027968">
   <ellipse class="fil9" cx="12353" cy="13718" rx="90" ry="87"/>
   <circle class="fil1 str0" cx="12353" cy="13718" r="30"/>
  </g>
  <g id="_2636025026368">
   <ellipse class="fil10" cx="12386" cy="14799" rx="90" ry="87"/>
   <circle class="fil1 str0" cx="12386" cy="14799" r="30"/>
  </g>
  <g id="_2636025025056">
   <ellipse class="fil11" cx="11407" cy="15183" rx="90" ry="87"/>
   <circle class="fil1 str0" cx="11407" cy="15183" r="30"/>
  </g>
  <g id="_2636025024256">
   <ellipse class="fil12" cx="11650" cy="14302" rx="90" ry="87"/>
   <circle class="fil1 str0" cx="11650" cy="14302" r="30"/>
  </g>
  <g id="_2636025023584">
   <ellipse class="fil13" cx="11264" cy="14090" rx="90" ry="87"/>
   <circle class="fil1 str0" cx="11264" cy="14090" r="30"/>
  </g>
  <g id="_2636025022528">
   <ellipse class="fil14" cx="9067" cy="14769" rx="90" ry="87"/>
   <circle class="fil1 str0" cx="9067" cy="14769" r="30"/>
  </g>
  <polyline class="fil15 str0" points="8117,14272 8117,14444 8542,14444 8651,14535 8829,14535 "/>
  <circle class="fil1 str0" cx="8119" cy="14259" r="30"/>
  <circle class="fil1 str0" cx="8829" cy="14530" r="30"/>
  <polyline class="fil15 str0" points="8373,14236 8205,14051 8205,14373 8836,14373 8836,14089 8768,14089 8697,14160 8456,14160 8456,14254 8727,14254 "/>
  <polyline class="fil15 str0" points="8243,14512 8411,14512 8482,14558 8477,14629 8406,14682 8134,14682 8104,14723 "/>
  <polyline class="fil15 str0" points="8157,14865 8236,14865 8236,15014 "/>
  <line class="fil15 str0" x1="8322" y1="14758" x2="8322" y2= "15070" />
  <polyline class="fil15 str0" points="8418,14773 8418,14974 8596,15144 8758,15144 8824,15197 "/>
  <polyline class="fil15 str0" points="8948,15235 8948,15189 8798,15037 8639,15037 8639,14756 8527,14895 "/>
  <polyline class="fil15 str0" points="8735,14806 8735,14931 9014,14931 9014,15083 "/>
  <line class="fil15 str0" x1="9181" y1="14771" x2="9181" y2= "14999" />
  <polyline class="fil15 str0" points="9196,15159 9288,15088 9392,15088 9392,14974 9355,14910 9355,14837 "/>
  <polyline class="fil15 str0" points="9407,15397 9480,15397 9480,15321 "/>
  <polyline class="fil15 str0" points="9338,15463 9592,15463 9592,15085 "/>
  <polyline class="fil15 str0" points="10372,14824 10253,14946 10253,15194 10347,15268 10347,15541 "/>
  <polyline class="fil15 str0" points="10160,15620 10160,15293 10066,15293 10066,15420 10028,15506 10028,15620 "/>
  <line class="fil15 str0" x1="8127" y1="14588" x2="8337" y2= "14588" />
  <polyline class="fil15 str0" points="8370,13752 8435,13752 8511,13925 "/>
  <line class="fil15 str0" x1="8646" y1="13868" x2="8449" y2= "13617" />
  <polyline class="fil15 str0" points="8279,13865 8387,14019 8806,14019 8806,13871 8584,13533 "/>
  <polyline class="fil15 str0" points="9450,15557 9941,15557 9941,15731 10039,15731 "/>
  <polyline class="fil15 str0" points="9836,15703 9836,15627 9732,15627 "/>
  <polyline class="fil15 str0" points="10576,15494 10638,15415 10736,15483 10796,15734 "/>
  <line class="fil15 str0" x1="11199" y1="16140" x2="11545" y2= "16140" />
  <polyline class="fil15 str0" points="11542,16041 11543,16319 11443,16438 11447,16575 "/>
  <line class="fil15 str0" x1="11368" y1="16429" x2="11368" y2= "16143" />
  <polyline class="fil15 str0" points="10748,15045 10834,15113 10834,14811 10569,15087 10855,15408 10855,15297 "/>
  <polyline class="fil15 str0" points="10922,15157 10922,15424 10978,15494 10978,15966 "/>
  <polyline class="fil15 str0" points="11141,15913 11066,15913 11066,15741 11136,15655 "/>
  <polyline class="fil15 str0" points="11259,15599 11145,15506 11145,15006 "/>
  <polyline class="fil15 str0" points="11217,15401 11217,14918 11536,14918 11440,15013 11575,15134 11575,15366 "/>
  <polyline class="fil15 str0" points="11461,15973 11703,15973 11966,15796 11966,15622 12066,15622 12154,15559 "/>
  <polyline class="fil15 str0" points="11864,15636 11864,15471 12184,15471 12259,15390 12477,15390 12584,15485 "/>
  <polyline class="fil15 str0" points="12522,15624 12417,15534 12280,15534 12217,15706 12122,15706 12122,15796 11966,15929 "/>
  <polyline class="fil15 str0" points="12152,15922 12078,15922 12352,15664 12459,15761 "/>
  <polyline class="fil15 str0" points="10431,15285 10476,15343 10476,15422 "/>
  <polyline class="fil15 str0" points="10413,14699 10473,14699 10473,14555 10578,14446 10578,14111 10783,14111 "/>
  <polyline class="fil15 str0" points="10680,14236 10680,14446 10566,14599 "/>
  <polyline class="fil15 str0" points="9857,14880 9946,14880 10025,14720 10178,14646 10238,14520 10471,14281 10471,14136 "/>
  <polyline class="fil15 str0" points="10373,14081 10373,14199 10306,14327 "/>
  <polyline class="fil15 str0" points="10989,13890 10989,14157 10880,14276 10880,14515 10820,14599 10820,14699 10685,14825 "/>
  <polyline class="fil15 str0" points="11234,14404 11096,14404 11096,14697 11313,14697 11313,14806 11526,14806 11596,14873 "/>
  <polyline class="fil15 str0" points="11696,14997 11696,14815 11580,14678 11413,14678 11413,14573 11203,14573 "/>
  <polyline class="fil15 str0" points="11724,14664 11724,14562 11589,14562 11589,14399 11831,14399 11831,14587 "/>
  <polyline class="fil15 str0" points="11761,14825 11761,15020 11861,15020 11861,14915 "/>
  <line class="fil15 str0" x1="11301" y1="14499" x2="11589" y2= "14499" />
  <polyline class="fil15 str0" points="11591,14400 11499,14306 11136,14306 "/>
  <polyline class="fil15 str0" points="11659,14290 11845,14148 12187,14148 12277,14062 12277,13911 12433,13741 12645,13741 "/>
  <polyline class="fil15 str0" points="11882,15190 11973,15190 12057,15222 12157,15222 12157,15301 11833,15301 11819,15356 "/>
  <polyline class="fil15 str0" points="12624,14329 12624,14911 12401,14911 12401,15022 "/>
  <polyline class="fil15 str0" points="12352,14801 12008,14801 12008,14392 12061,14283 12468,14283 12468,14022 12582,14022 "/>
  <line class="fil15 str0" x1="12452" y1="14422" x2="12624" y2= "14422" />
  <polyline class="fil15 str0" points="12563,14585 12494,14585 12445,14622 12333,14622 12333,14515 12270,14436 "/>
  <polyline class="fil15 str0" points="12136,14434 12059,14525 12059,14701 12150,14701 "/>
  <polyline class="fil15 str0" points="12117,14971 12261,14971 12261,15062 12577,15238 12577,15410 12647,15410 "/>
  <polyline class="fil15 str0" points="12682,15178 12524,15111 12524,15031 "/>
  <line class="fil15 str0" x1="12740" y1="13997" x2="12740" y2= "14836" />
  <line class="fil15 str0" x1="12624" y1="14662" x2="12740" y2= "14662" />
  <polyline class="fil15 str0" points="11631,16041 11631,16220 11743,16326 11743,16803 11878,16947 11964,16947 12029,17024 "/>
  <polyline class="fil15 str0" points="12073,16847 11882,16733 11882,16661 11687,16661 11687,16333 11596,16333 11596,16461 11564,16526 11564,16801 "/>
  <line class="fil15 str0" x1="11689" y1="16968" x2="11794" y2= "16864" />
  <polyline class="fil15 str0" points="11006,15008 11006,14727 10941,14469 10941,14322 11055,14199 11055,13037 10913,12853 10913,12727 "/>
  <polyline class="fil15 str0" points="10815,12725 10815,12925 10934,13113 10934,13437 10708,13437 10708,13537 10892,13702 10892,13864 10941,13964 10941,14050 "/>
  <polyline class="fil15 str0" points="10994,13634 10994,13544 10855,13544 "/>
  <polyline class="fil15 str0" points="11117,13646 11117,14227 11631,14227 11815,14062 12180,14062 12180,13881 12352,13730 "/>
  <polyline class="fil15 str0" points="12624,13648 12143,13648 12012,13550 11571,13557 11545,13530 "/>
  <polyline class="fil15 str0" points="12138,13653 12112,13727 11959,13641 11687,13641 "/>
  <polyline class="fil15 str0" points="11557,13764 11557,13820 11710,13725 11973,13725 12122,13813 12122,13955 11622,13955 11566,14067 11473,14067 "/>
  <polyline class="fil15 str0" points="11515,13876 12029,13876 11975,13795 11875,13795 "/>
  <polyline class="fil15 str0" points="11287,13604 11236,13604 11236,13337 11471,13337 11471,13409 11582,13409 11680,13485 12143,13485 12254,13592 12536,13592 12536,13560 "/>
  <polyline class="fil15 str0" points="11389,13339 11389,13662 11259,13836 11259,14083 "/>
  <line class="fil15 str0" x1="11241" y1="13416" x2="11303" y2= "13416" />
  <polyline class="fil15 str0" points="11171,13334 11171,13234 11266,13185 11489,13185 11633,13269 11633,13397 11710,13432 12419,13432 "/>
  <line class="fil15 str0" x1="12336" y1="13341" x2="11794" y2= "13341" />
  <polyline class="fil15 str0" points="12219,13260 12061,13260 11898,13111 12015,13111 "/>
  <polyline class="fil15 str0" points="11882,13246 11759,13181 11610,13181 11466,13018 11389,13018 "/>
  <polyline class="fil15 str0" points="11440,13109 11238,13109 11238,12851 11296,12807 "/>
  <polyline class="fil15 str0" points="11571,12930 11571,13030 11652,13095 11794,13095 "/>
  <polyline class="fil15 str0" points="10759,13850 10759,13713 10559,13520 10559,13269 10348,13069 10320,12993 "/>
  <polyline class="fil15 str0" points="10418,12704 10418,12962 10585,13172 10659,13172 10659,12937 10550,12825 10550,12709 "/>
  <polyline class="fil15 str0" points="10648,12707 10663,12765 10762,12886 10762,13269 10643,13355 "/>
  <polyline class="fil15 str0" points="10466,13351 10466,13292 10301,13111 10148,13111 10148,12953 9997,12953 9923,12880 9923,12774 "/>
  <polyline class="fil15 str0" points="10043,12825 10150,12825 10211,12760 10211,12697 "/>
  <polyline class="fil15 str0" points="10180,12902 10229,12902 10315,12813 10415,12813 "/>
  <polyline class="fil15 str0" points="10234,14225 10234,14036 10311,13925 10311,13771 10180,13639 10092,13639 9948,13485 9948,13009 9846,12902 9846,12746 "/>
  <polyline class="fil15 str0" points="9636,12811 9636,12855 9718,12855 9825,12993 9825,13499 10055,13713 10055,14457 9471,14457 9415,14504 "/>
  <polyline class="fil15 str0" points="9685,12941 9360,12941 9360,13330 9439,13371 9439,13557 9594,13750 9594,13876 9562,13918 9562,14060 9657,14146 9657,14353 "/>
  <polyline class="fil15 str0" points="9478,13034 9478,13409 9753,13409 9753,13569 9853,13662 9853,13757 9987,13869 9987,14090 9915,14090 "/>
  <polyline class="fil15 str0" points="9362,13527 9362,13455 9299,13397 9299,13090 9153,13090 "/>
  <polyline class="fil15 str0" points="8978,13232 9023,13276 9206,13276 9206,13511 9360,13753 9450,13753 "/>
  <polyline class="fil15 str0" points="9420,13857 9478,13873 9478,14099 "/>
  <polyline class="fil15 str0" points="9550,14232 9434,14232 9346,14141 9346,13985 9262,13881 9262,13725 9102,13509 9102,13392 "/>
  <polyline class="fil15 str0" points="8957,14508 8957,14446 9006,14406 9006,14267 8969,14188 8969,13962 8692,13544 8760,13462 8760,13392 "/>
  <polyline class="fil15 str0" points="8837,13327 8837,13485 9025,13774 9034,14115 9078,14162 9078,14294 "/>
  <polyline class="fil15 str0" points="12803,13909 12803,14235 12893,14334 12893,14676 "/>
  <line class="fil15 str0" x1="12765" y1="13980" x2="12806" y2= "13980" />
  <line class="fil15 str0" x1="9446" y1="14770" x2="9446" y2= "14630" />
  <line class="fil15 str0" x1="8809" y1="14691" x2="8809" y2= "14622" />
  <circle class="fil1 str0" cx="8225" cy="14511" r="30"/>
  <circle class="fil1 str0" cx="8095" cy="14591" r="30"/>
  <circle class="fil1 str0" cx="8350" cy="14589" r="30"/>
  <circle class="fil1 str0" cx="8324" cy="14740" r="30"/>
  <circle class="fil1 str0" cx="8419" cy="14746" r="30"/>
  <circle class="fil1 str0" cx="8093" cy="14746" r="30"/>
  <circle class="fil1 str0" cx="8136" cy="14864" r="30"/>
  <circle class="fil1 str0" cx="8248" cy="15012" r="30"/>
  <circle class="fil1 str0" cx="8325" cy="15078" r="30"/>
  <circle class="fil1 str0" cx="8528" cy="14903" r="30"/>
  <circle class="fil1 str0" cx="8736" cy="14791" r="30"/>
  <circle class="fil1 str0" cx="8811" cy="14711" r="30"/>
  <circle class="fil1 str0" cx="8719" cy="14630" r="30"/>
  <circle class="fil1 str0" cx="8962" cy="14530" r="30"/>
  <circle class="fil1 str0" cx="9133" cy="14528" r="30"/>
  <line class="fil15 str1" x1="9078" y1="15082" x2="9037" y2= "15082" />
  <circle class="fil1 str0" cx="9025" cy="15082" r="30"/>
  <polyline class="fil15 str0" points="8915,14839 9080,14839 9080,15222 "/>
  <polyline class="fil15 str0" points="9077,14768 9729,14768 9734,15019 9873,15019 "/>
  <polyline class="fil15 str0" points="9272,15237 9407,15237 9511,15156 9511,14895 9658,14895 9658,15420 9997,15420 9997,15252 10203,14991 10200,15250 10266,15321 10266,15470 "/>
  <circle class="fil1 str0" cx="8903" cy="14838" r="30"/>
  <circle class="fil1 str0" cx="8835" cy="15210" r="30"/>
  <circle class="fil1 str0" cx="8950" cy="15250" r="30"/>
  <circle class="fil1 str0" cx="9089" cy="15222" r="30"/>
  <circle class="fil1 str0" cx="9189" cy="15164" r="30"/>
  <circle class="fil1 str0" cx="9187" cy="15012" r="30"/>
  <circle class="fil1 str0" cx="9352" cy="14829" r="30"/>
  <circle class="fil1 str0" cx="9594" cy="15058" r="30"/>
  <circle class="fil1 str0" cx="9482" cy="15306" r="30"/>
  <circle class="fil1 str0" cx="9375" cy="15395" r="30"/>
  <circle class="fil1 str0" cx="9321" cy="15465" r="30"/>
  <circle class="fil1 str0" cx="9423" cy="15553" r="30"/>
  <circle class="fil1 str0" cx="9714" cy="15630" r="30"/>
  <circle class="fil1 str0" cx="9839" cy="15729" r="30"/>
  <circle class="fil1 str0" cx="10067" cy="15734" r="30"/>
  <circle class="fil1 str0" cx="10030" cy="15632" r="30"/>
  <circle class="fil1 str0" cx="10162" cy="15644" r="30"/>
  <circle class="fil1 str0" cx="10348" cy="15553" r="30"/>
  <circle class="fil1 str0" cx="10264" cy="15475" r="30"/>
  <circle class="fil1 str0" cx="10478" cy="15445" r="30"/>
  <circle class="fil1 str0" cx="10423" cy="15265" r="30"/>
  <circle class="fil1 str0" cx="9866" cy="15021" r="30"/>
  <circle class="fil1 str0" cx="9855" cy="14875" r="30"/>
  <circle class="fil1 str0" cx="10567" cy="15510" r="30"/>
  <circle class="fil1 str0" cx="10809" cy="15751" r="30"/>
  <circle class="fil1 str0" cx="10856" cy="15275" r="30"/>
  <circle class="fil1 str0" cx="10926" cy="15126" r="30"/>
  <circle class="fil1 str0" cx="10742" cy="15033" r="30"/>
  <circle class="fil1 str0" cx="10978" cy="15984" r="30"/>
  <circle class="fil1 str0" cx="9251" cy="15239" r="30"/>
  <circle class="fil1 str0" cx="11163" cy="15909" r="30"/>
  <circle class="fil1 str0" cx="11278" cy="15608" r="30"/>
  <circle class="fil1 str0" cx="11224" cy="15425" r="30"/>
  <circle class="fil1 str0" cx="11285" cy="15323" r="30"/>
  <circle class="fil1 str0" cx="11348" cy="15838" r="30"/>
  <circle class="fil1 str0" cx="11435" cy="15971" r="30"/>
  <circle class="fil1 str0" cx="10384" cy="14812" r="30"/>
  <circle class="fil1 str0" cx="10681" cy="14831" r="30"/>
  <circle class="fil1 str0" cx="10401" cy="14696" r="30"/>
  <circle class="fil1 str0" cx="10558" cy="14620" r="30"/>
  <circle class="fil1 str0" cx="11006" cy="15031" r="30"/>
  <circle class="fil1 str0" cx="11147" cy="14978" r="30"/>
  <circle class="fil1 str0" cx="11179" cy="14575" r="30"/>
  <g id="_2635854461040">
   <ellipse class="fil16" cx="11179" cy="14813" rx="90" ry="87"/>
   <circle class="fil1 str0" cx="11179" cy="14813" r="30"/>
  </g>
  <polyline class="fil15 str0" points="11973,15410 12131,15410 12205,15341 12431,15341 12194,15159 12036,15159 12036,14869 12508,14869 12508,14727 12273,14727 12201,14639 12201,14346 12559,14346 12559,14178 "/>
  <polyline class="fil15 str0" points="11894,16038 11320,16038 11245,15973 11245,15734 11068,15596 11068,14864 11156,14814 "/>
  <polyline class="fil15 str0" points="12512,13839 12624,13941 12375,13941 12375,14088 12245,14213 11908,14213 11908,15115 11761,15115 11761,15455 11712,15520 11594,15520 11487,15403 11487,15157 11280,14990 11280,15303 "/>
  <polyline class="fil15 str0" points="11401,15185 11347,15352 11347,15822 "/>
  <polyline class="fil15 str0" points="11640,15622 11640,15792 11575,15792 "/>
  <polyline class="fil15 str0" points="11492,15587 11545,15587 11545,15694 11427,15775 11427,15875 11706,15875 11780,15801 11780,15599 "/>
  <circle class="fil1 str0" cx="11610" cy="14888" r="30"/>
  <circle class="fil1 str0" cx="11698" cy="15023" r="30"/>
  <circle class="fil1 str0" cx="11578" cy="15381" r="30"/>
  <circle class="fil1 str0" cx="11469" cy="15585" r="30"/>
  <circle class="fil1 str0" cx="11641" cy="15591" r="30"/>
  <circle class="fil1 str0" cx="11787" cy="15575" r="30"/>
  <circle class="fil1 str0" cx="11873" cy="15660" r="30"/>
  <circle class="fil1 str0" cx="12164" cy="15550" r="30"/>
  <circle class="fil1 str0" cx="12464" cy="15762" r="30"/>
  <circle class="fil1 str0" cx="12542" cy="15640" r="30"/>
  <circle class="fil1 str0" cx="12180" cy="15924" r="30"/>
  <circle class="fil1 str0" cx="11954" cy="15938" r="30"/>
  <circle class="fil1 str0" cx="11915" cy="16037" r="30"/>
  <circle class="fil1 str0" cx="11820" cy="15365" r="30"/>
  <circle class="fil1 str0" cx="11951" cy="15406" r="30"/>
  <circle class="fil1 str0" cx="11860" cy="15194" r="30"/>
  <circle class="fil1 str0" cx="12113" cy="14976" r="30"/>
  <circle class="fil1 str0" cx="12405" cy="15031" r="30"/>
  <circle class="fil1 str0" cx="12526" cy="15013" r="30"/>
  <circle class="fil1 str0" cx="12695" cy="15180" r="30"/>
  <circle class="fil1 str0" cx="12648" cy="15410" r="30"/>
  <circle class="fil1 str0" cx="12600" cy="15486" r="30"/>
  <circle class="fil1 str0" cx="12154" cy="14698" r="30"/>
  <circle class="fil1 str0" cx="11838" cy="14609" r="30"/>
  <circle class="fil1 str0" cx="11729" cy="14688" r="30"/>
  <circle class="fil1 str0" cx="11763" cy="14799" r="30"/>
  <circle class="fil1 str0" cx="11863" cy="14886" r="30"/>
  <circle class="fil1 str0" cx="12746" cy="14852" r="30"/>
  <circle class="fil1 str0" cx="12892" cy="14695" r="30"/>
  <circle class="fil1 str0" cx="12589" cy="14586" r="30"/>
  <g id="_2671788487568">
   <ellipse class="fil17" cx="10388" cy="14525" rx="90" ry="87"/>
   <circle class="fil1 str0" cx="10388" cy="14525" r="30"/>
  </g>
  <g id="_2671788486608">
   <ellipse class="fil18" cx="10210" cy="13826" rx="90" ry="87"/>
   <circle class="fil1 str0" cx="10210" cy="13826" r="30"/>
  </g>
  <g id="_2671788486928">
   <ellipse class="fil19" cx="9791" cy="14202" rx="90" ry="87"/>
   <circle class="fil1 str0" cx="9791" cy="14202" r="30"/>
  </g>
  <g id="_2671788481648">
   <ellipse class="fil20" cx="9358" cy="14347" rx="90" ry="87"/>
   <circle class="fil1 str0" cx="9358" cy="14347" r="30"/>
  </g>
  <polyline class="fil15 str0" points="9006,13392 9006,13592 9125,13734 9125,13897 9090,13974 9090,14099 9176,14171 9176,14422 9129,14460 9129,14527 "/>
  <polyline class="fil15 str0" points="9625,13039 9727,13039 9727,13255 "/>
  <polyline class="fil15 str0" points="10606,14018 10427,14018 10427,13839 10185,13402 10185,13276 10090,13206 10090,13481 "/>
  <polyline class="fil15 str0" points="10880,15541 10699,15345 10597,15345 10597,15229 10413,15152 10413,14994 10562,14871 10562,14783 10673,14690 10671,14562 10866,14232 10866,14018 10778,13948 10683,13948 10683,13727 10538,13727 10266,13292 "/>
  <polyline class="fil15 str0" points="11492,13664 11382,13820 11382,14155 11178,14155 11178,13597 11113,13416 11113,12923 "/>
  <polyline class="fil15 str0" points="8743,14624 9947,14624 10142,14510 10142,13884 10205,13831 "/>
  <polyline class="fil15 str0" points="9918,14232 9918,14350 9367,14350 "/>
  <polyline class="fil15 str0" points="9792,14183 9792,14113 9715,14050 9715,13943 9855,13943 9739,13841 9739,13730 9643,13637 9643,13518 "/>
  <polyline class="fil15 str0" points="9797,15323 9797,15182 9881,15182 10089,14824 10266,14824 10274,14621 10385,14528 "/>
  <circle class="fil1 str0" cx="9083" cy="14305" r="30"/>
  <circle class="fil1 str0" cx="8728" cy="14256" r="30"/>
  <circle class="fil1 str0" cx="8658" cy="13884" r="30"/>
  <circle class="fil1 str0" cx="9403" cy="13856" r="30"/>
  <circle class="fil1 str0" cx="9479" cy="14121" r="30"/>
  <circle class="fil1 str0" cx="9568" cy="14234" r="30"/>
  <circle class="fil1 str0" cx="9400" cy="14516" r="30"/>
  <circle class="fil1 str0" cx="9919" cy="14212" r="30"/>
  <circle class="fil1 str0" cx="9903" cy="14087" r="30"/>
  <circle class="fil1 str0" cx="9463" cy="13752" r="30"/>
  <circle class="fil1 str0" cx="9371" cy="13557" r="30"/>
  <circle class="fil1 str0" cx="9649" cy="13494" r="30"/>
  <circle class="fil1 str0" cx="10093" cy="13500" r="30"/>
  <circle class="fil1 str0" cx="10240" cy="14250" r="30"/>
  <circle class="fil1 str0" cx="10307" cy="14334" r="30"/>
  <circle class="fil1 str0" cx="10381" cy="14056" r="30"/>
  <circle class="fil1 str0" cx="10610" cy="14021" r="30"/>
  <circle class="fil1 str0" cx="10783" cy="14115" r="30"/>
  <circle class="fil1 str0" cx="10679" cy="14221" r="30"/>
  <circle class="fil1 str0" cx="10478" cy="14119" r="30"/>
  <circle class="fil1 str0" cx="10947" cy="14070" r="30"/>
  <circle class="fil1 str0" cx="10989" cy="13868" r="30"/>
  <circle class="fil1 str0" cx="10995" cy="13657" r="30"/>
  <circle class="fil1 str0" cx="10771" cy="13870" r="30"/>
  <circle class="fil1 str0" cx="10843" cy="13541" r="30"/>
  <circle class="fil1 str0" cx="11118" cy="13621" r="30"/>
  <circle class="fil1 str0" cx="11124" cy="14309" r="30"/>
  <circle class="fil1 str0" cx="11257" cy="14399" r="30"/>
  <circle class="fil1 str0" cx="11276" cy="14499" r="30"/>
  <circle class="fil1 str0" cx="11464" cy="14068" r="30"/>
  <circle class="fil1 str0" cx="11490" cy="13876" r="30"/>
  <circle class="fil1 str0" cx="11509" cy="13649" r="30"/>
  <circle class="fil1 str0" cx="11308" cy="13605" r="30"/>
  <circle class="fil1 str0" cx="11558" cy="13742" r="30"/>
  <circle class="fil1 str0" cx="11680" cy="13641" r="30"/>
  <circle class="fil1 str0" cx="11774" cy="13343" r="30"/>
  <circle class="fil1 str0" cx="11795" cy="13086" r="30"/>
  <circle class="fil1 str0" cx="11574" cy="12898" r="30"/>
  <circle class="fil1 str0" cx="11377" cy="13021" r="30"/>
  <circle class="fil1 str0" cx="11458" cy="13108" r="30"/>
  <circle class="fil1 str0" cx="11175" cy="13353" r="30"/>
  <circle class="fil1 str0" cx="11317" cy="13408" r="30"/>
  <circle class="fil1 str0" cx="10638" cy="13360" r="30"/>
  <circle class="fil1 str0" cx="10473" cy="13370" r="30"/>
  <circle class="fil1 str0" cx="9600" cy="13041" r="30"/>
  <circle class="fil1 str0" cx="9482" cy="13014" r="30"/>
  <circle class="fil1 str0" cx="9706" cy="12940" r="30"/>
  <circle class="fil1 str0" cx="9641" cy="12791" r="30"/>
  <circle class="fil1 str0" cx="9848" cy="12729" r="30"/>
  <circle class="fil1 str0" cx="9930" cy="12757" r="30"/>
  <circle class="fil1 str0" cx="10038" cy="12825" r="30"/>
  <circle class="fil1 str0" cx="10167" cy="12897" r="30"/>
  <circle class="fil1 str0" cx="10315" cy="12978" r="30"/>
  <circle class="fil1 str0" cx="10214" cy="12682" r="30"/>
  <circle class="fil1 str0" cx="10419" cy="12678" r="30"/>
  <circle class="fil1 str0" cx="10554" cy="12684" r="30"/>
  <circle class="fil1 str0" cx="10651" cy="12694" r="30"/>
  <circle class="fil1 str0" cx="10821" cy="12709" r="30"/>
  <circle class="fil1 str0" cx="10921" cy="12714" r="30"/>
  <circle class="fil1 str0" cx="8519" cy="13941" r="30"/>
  <circle class="fil1 str0" cx="8272" cy="13844" r="30"/>
  <circle class="fil1 str0" cx="8342" cy="13756" r="30"/>
  <circle class="fil1 str0" cx="8446" cy="13608" r="30"/>
  <circle class="fil1 str0" cx="8760" cy="13376" r="30"/>
  <circle class="fil1 str0" cx="8579" cy="13523" r="30"/>
  <circle class="fil1 str0" cx="8836" cy="13308" r="30"/>
  <circle class="fil1 str0" cx="8968" cy="13222" r="30"/>
  <circle class="fil1 str0" cx="9136" cy="13090" r="30"/>
  <circle class="fil1 str0" cx="9107" cy="13375" r="30"/>
  <circle class="fil1 str0" cx="11310" cy="12802" r="30"/>
  <circle class="fil1 str0" cx="12031" cy="13108" r="30"/>
  <circle class="fil1 str0" cx="11892" cy="13256" r="30"/>
  <circle class="fil1 str0" cx="11871" cy="13795" r="30"/>
  <circle class="fil1 str0" cx="12243" cy="13256" r="30"/>
  <circle class="fil1 str0" cx="12355" cy="13336" r="30"/>
  <circle class="fil1 str0" cx="12445" cy="13431" r="30"/>
  <circle class="fil1 str0" cx="12536" cy="13536" r="30"/>
  <circle class="fil1 str0" cx="12640" cy="13642" r="30"/>
  <circle class="fil1 str0" cx="12651" cy="13743" r="30"/>
  <circle class="fil1 str0" cx="12503" cy="13827" r="30"/>
  <circle class="fil1 str0" cx="12741" cy="13981" r="30"/>
  <circle class="fil1 str0" cx="12808" cy="13885" r="30"/>
  <circle class="fil1 str0" cx="12607" cy="14019" r="30"/>
  <circle class="fil1 str0" cx="12688" cy="14085" r="30"/>
  <circle class="fil1 str0" cx="12560" cy="14162" r="30"/>
  <circle class="fil1 str0" cx="12627" cy="14304" r="30"/>
  <circle class="fil1 str0" cx="12426" cy="14423" r="30"/>
  <circle class="fil1 str0" cx="12280" cy="14420" r="30"/>
  <circle class="fil1 str0" cx="12153" cy="14416" r="30"/>
  <circle class="fil1 str0" cx="11187" cy="16144" r="30"/>
  <circle class="fil1 str0" cx="11370" cy="16454" r="30"/>
  <circle class="fil1 str0" cx="11451" cy="16584" r="30"/>
  <circle class="fil1 str0" cx="11568" cy="16815" r="30"/>
  <circle class="fil1 str0" cx="11673" cy="16988" r="30"/>
  <circle class="fil1 str0" cx="12035" cy="17028" r="30"/>
  <circle class="fil1 str0" cx="12079" cy="16849" r="30"/>
  <circle class="fil1 str0" cx="8377" cy="14235" r="30"/>
  <line class="fil15 str0" x1="12696" y1="14086" x2="12742" y2= "14086" />
  <line class="fil15 str0" x1="11859" y1="14885" x2="11906" y2= "14885" />
  <line class="fil15 str0" x1="12150" y1="14414" x2="12197" y2= "14414" />
  <line class="fil15 str0" x1="10941" y1="14073" x2="10988" y2= "14073" />
  <line class="fil15 str0" x1="10994" y1="13652" x2="11057" y2= "13652" />
  <line class="fil15 str0" x1="11116" y1="13619" x2="11178" y2= "13619" />
 </g>
</svg>
