<?xml version="1.0" encoding="UTF-8"?>
<!DOCTYPE svg PUBLIC "-//W3C//DTD SVG 1.1//EN" "http://www.w3.org/Graphics/SVG/1.1/DTD/svg11.dtd">
<!-- Creator: CorelDRAW X8 -->
<svg xmlns="http://www.w3.org/2000/svg" xml:space="preserve" width="87.4888mm" height="76.2mm" version="1.1" style="shape-rendering:geometricPrecision; text-rendering:geometricPrecision; image-rendering:optimizeQuality; fill-rule:evenodd; clip-rule:evenodd"
viewBox="0 0 8749 7620"
 xmlns:xlink="http://www.w3.org/1999/xlink">
 <defs>
  <style type="text/css">
   <![CDATA[
    .str1 {stroke:red;stroke-width:14.06}
    .str0 {stroke:black;stroke-width:14.06}
    .str3 {stroke:white;stroke-width:7.62}
    .str2 {stroke:black;stroke-width:14.06;stroke-dasharray:84.660000 84.660000}
    .fil4 {fill:none;fill-rule:nonzero}
    .fil2 {fill:blue;fill-rule:nonzero}
    .fil3 {fill:green;fill-rule:nonzero}
    .fil1 {fill:red;fill-rule:nonzero}
    .fil0 {fill:black;fill-rule:nonzero}
   ]]>
  </style>
 </defs>
 <g id="Layer_x0020_1">
  <metadata id="CorelCorpID_0Corel-Layer"/>
  <path class="fil0" d="M2656 3373c0,-45 -19,-78 -62,-78 -37,0 -68,29 -70,31 -28,28 -39,60 -39,60 0,2 2,3 4,3 6,0 12,-4 17,-8 6,-4 7,-5 11,-13 3,-7 11,-25 24,-39 8,-10 15,-15 29,-15 35,0 56,28 56,74 0,72 -51,143 -116,143 -50,0 -77,-40 -77,-90 0,-48 25,-101 76,-131 3,-2 14,-8 14,-13 0,-2 -3,-2 -4,-2 -12,0 -116,56 -116,161 0,49 26,94 84,94 69,0 169,-69 169,-177z"/>
  <path class="fil0" d="M5003 1312c4,-29 8,-59 8,-89 0,-10 0,-49 -12,-75 -14,-27 -33,-31 -45,-31 -12,0 -24,10 -24,15 0,2 2,2 6,2 15,2 31,9 40,38 7,22 9,48 9,64 0,53 -13,114 -15,122 -1,4 -1,6 -1,9 0,1 0,6 2,6 2,0 2,-1 8,-7 39,-47 78,-100 116,-167 14,-24 23,-42 24,-45 11,33 23,81 30,139 2,18 3,40 4,58 0,2 0,18 1,19 0,1 1,3 2,3 1,0 2,-1 7,-7 44,-49 119,-151 119,-212 0,-28 -15,-37 -26,-37 -9,0 -15,21 -15,27 0,4 2,5 5,5 5,1 21,3 21,27 0,40 -86,148 -89,148 0,0 0,-1 0,-9 -4,-75 -24,-156 -39,-194 -1,-3 -1,-4 -5,-4 -6,0 -22,9 -22,15 0,1 2,4 3,6 -22,41 -54,100 -112,174l0 0z"/>
  <path class="fil0" d="M5162 5847l-6 -6c0,1 -13,17 -29,17 -8,0 -16,-5 -22,-9 -10,-5 -16,-8 -22,-8 -14,0 -20,8 -38,28l5 5c0,0 14,-17 29,-17 8,0 17,5 23,9 10,6 16,8 22,8 13,0 20,-8 38,-27z"/>
  <path class="fil0" d="M5067 6135c5,-44 5,-75 5,-80 0,-25 0,-130 -64,-130 -12,0 -24,10 -24,15 0,2 1,2 6,2 52,5 56,86 56,125 0,36 -5,78 -9,101 -1,5 -1,5 -1,7 0,2 0,6 3,6 4,0 89,-65 133,-133 18,-28 32,-59 32,-82 0,-30 -20,-41 -35,-41 -10,0 -15,22 -15,27 0,5 2,5 6,5 24,3 28,22 28,30 0,29 -61,101 -121,148z"/>
  <path class="fil1" d="M7610 1113c0,-1 -1,-4 -4,-4 -1,0 -2,0 -6,4l-24 27c-3,-5 -19,-31 -58,-31 -79,0 -158,78 -158,159 0,56 39,97 96,97 15,0 31,-4 44,-9 18,-7 24,-14 31,-21 3,8 12,22 15,22 2,0 3,-2 3,-2 1,-1 4,-14 6,-21l6 -27c2,-6 4,-12 5,-18 4,-16 4,-17 24,-17 2,0 6,-1 6,-7 0,-3 -2,-4 -5,-4 -8,0 -28,1 -37,1 -10,0 -38,-1 -49,-1 -3,0 -7,0 -7,7 0,4 3,4 10,4 1,0 11,0 19,1 9,1 11,2 11,6 0,3 -4,19 -7,32 -10,39 -56,43 -68,43 -34,0 -71,-20 -71,-74 0,-11 4,-69 40,-115 19,-24 54,-45 88,-45 36,0 57,27 57,68 0,14 -1,14 -1,18 0,3 4,3 5,3 5,0 5,0 6,-7l23 -89z"/>
  <path class="fil2" d="M651 2900l0 1 0 180c0,12 0,15 -25,15l-7 0 0 10c19,-1 40,-1 45,-1 2,0 25,0 45,1l0 -10 -7 0c-24,0 -25,-3 -25,-15l0 -166c0,-12 1,-15 25,-15l7 0 0 -10 -53 0c-7,0 -9,0 -11,6l-71 179 -71 -178c-2,-6 -3,-7 -11,-7l-53 0 0 10 7 0c24,0 25,3 25,15l0 157c0,9 0,24 -32,24l0 10c17,-1 22,-1 37,-1 15,0 20,0 37,1l0 -10c-32,0 -32,-15 -32,-24l0 -169 0 0 78 196c2,4 3,7 7,7 3,0 5,-3 6,-6l79 -200zm198 134c7,0 9,0 9,-7 0,-33 -18,-63 -58,-63 -38,0 -68,33 -68,72 0,42 33,73 72,73 38,0 54,-33 54,-41 0,-2 -2,-4 -5,-4 -3,0 -4,2 -4,4 -11,32 -39,33 -44,33 -15,0 -28,-9 -35,-20 -10,-15 -11,-34 -11,-47l90 0zm-89 -8c2,-49 31,-54 40,-54 17,0 36,13 36,54l-76 0zm216 57c1,14 10,25 24,25 8,0 28,-5 28,-30l0 -18 -9 0 0 18c0,3 0,19 -11,19 -12,0 -12,-15 -12,-20l0 -56c0,-18 0,-29 -14,-42 -12,-10 -27,-15 -43,-15 -26,0 -48,14 -48,34 0,10 6,15 14,15 9,0 15,-6 15,-15 0,-13 -14,-15 -14,-15 8,-8 23,-11 33,-11 16,0 34,12 34,40l0 10c-17,1 -41,3 -62,13 -23,11 -30,27 -30,40 0,26 31,34 52,34 26,0 38,-17 43,-26zm-3 -22c0,31 -24,41 -38,41 -15,0 -29,-11 -29,-27 0,-21 18,-43 67,-45l0 31zm165 -88c0,-6 0,-9 -3,-9 -2,0 -3,0 -7,4 0,1 -3,4 -5,5 -10,-7 -20,-9 -30,-9 -42,0 -53,23 -53,40 0,10 5,18 12,25 11,10 23,12 39,15 16,3 22,4 29,9 3,3 11,9 11,21 0,28 -32,28 -37,28 -32,0 -40,-27 -44,-44 -1,-4 -1,-5 -5,-5 -5,0 -5,2 -5,8l0 40c0,6 0,8 4,8 2,0 2,0 8,-6 1,-2 5,-6 6,-7 14,13 28,13 36,13 39,0 53,-22 53,-43 0,-15 -7,-23 -14,-31 -10,-10 -22,-12 -45,-17 -8,-1 -31,-5 -31,-23 0,-10 7,-24 36,-24 34,0 36,26 37,34 0,4 0,6 4,6 4,0 4,-2 4,-8l0 -30zm145 80c0,28 -16,49 -39,49 -26,0 -27,-14 -27,-31l0 -105 -48 4 0 9c24,0 24,1 24,30l0 47c0,21 0,34 15,45 9,6 22,8 35,8 16,0 32,-7 41,-26l0 0 0 26 47 -3 0 -10c-22,0 -25,-2 -25,-18l0 -112 -47 4 0 9c21,0 24,3 24,18l0 56zm111 -19c0,-13 4,-60 40,-60l0 0c-1,1 -6,5 -6,12 0,9 7,14 14,14 7,0 14,-5 14,-14 0,-10 -9,-20 -24,-20 -19,0 -32,13 -39,33l0 0 0 -33 -45 4 0 9c21,0 24,3 24,18l0 85c0,14 -4,14 -24,14l0 10c16,-1 20,-1 37,-1 12,0 20,0 40,1l0 -10 -7 0c-23,0 -24,-3 -24,-15l0 -47zm179 49c2,14 11,25 25,25 8,0 28,-5 28,-30l0 -18 -9 0 0 18c0,3 0,19 -12,19 -11,0 -11,-15 -11,-20l0 -56c0,-18 0,-29 -14,-42 -12,-10 -27,-15 -43,-15 -27,0 -49,14 -49,34 0,10 7,15 15,15 9,0 15,-6 15,-15 0,-13 -14,-15 -14,-15 8,-8 23,-11 32,-11 17,0 35,12 35,40l0 10c-17,1 -41,3 -62,13 -23,11 -30,27 -30,40 0,26 31,34 52,34 26,0 38,-17 42,-26zm-2 -22c0,31 -24,41 -38,41 -15,0 -29,-11 -29,-27 0,-21 18,-43 67,-45l0 31zm114 -56c0,-6 0,-6 3,-11 11,-15 27,-20 39,-20 13,0 26,8 34,21 8,14 9,32 9,42 0,15 -2,32 -10,45 -7,10 -20,20 -37,20 -14,0 -26,-8 -34,-20 -4,-6 -4,-7 -4,-13l0 -64zm-3 82c10,14 26,22 43,22 37,0 72,-30 72,-71 0,-40 -31,-72 -69,-72 -22,0 -37,11 -44,20l0 -100 -47 4 0 10c22,0 24,2 24,17l0 189 9 0 12 -19zm184 -201l-47 4 0 10c22,0 25,2 25,17l0 165c0,14 -4,14 -25,14l0 10c15,-1 21,-1 36,-1 15,0 20,0 35,1l0 -10c-20,0 -24,0 -24,-14l0 -196zm159 148c6,0 8,0 8,-7 0,-33 -18,-63 -58,-63 -38,0 -68,33 -68,72 0,42 33,73 72,73 39,0 54,-33 54,-41 0,-2 -2,-4 -4,-4 -4,0 -4,2 -5,4 -11,32 -39,33 -43,33 -16,0 -29,-9 -36,-20 -10,-15 -11,-34 -11,-47l91 0zm-90 -8c3,-49 31,-54 40,-54 17,0 36,13 37,54l-77 0z"/>
  <path class="fil2" d="M514 3425c0,-41 -33,-74 -72,-74 -40,0 -72,34 -72,74 0,40 33,71 72,71 40,0 72,-32 72,-71zm-72 62c-15,0 -29,-8 -36,-20 -8,-13 -9,-30 -9,-45 0,-11 0,-29 8,-42 10,-16 26,-21 37,-21 18,0 31,10 37,21 8,13 8,29 8,42 0,12 0,30 -8,44 -9,15 -23,21 -37,21zm139 -95c0,-6 0,-7 3,-12 11,-14 26,-19 38,-19 14,0 27,7 35,21 8,13 9,32 9,42 0,15 -2,32 -10,44 -7,10 -20,20 -37,20 -14,0 -26,-7 -34,-19 -4,-7 -4,-7 -4,-13l0 -64zm-3 81c10,14 25,23 42,23 38,0 73,-30 73,-72 0,-39 -31,-71 -69,-71 -22,0 -37,11 -44,19l0 -99 -47 4 0 9c21,0 24,3 24,18l0 189 9 0 12 -20zm234 -114c0,-5 0,-8 -3,-8 -2,0 -3,0 -7,4 0,0 -3,3 -5,5 -10,-7 -20,-9 -30,-9 -42,0 -53,23 -53,39 0,10 5,18 12,25 11,10 23,12 39,15 16,3 22,4 29,10 3,2 11,8 11,20 0,28 -32,28 -37,28 -32,0 -40,-27 -44,-44 -1,-3 -1,-5 -5,-5 -5,0 -5,3 -5,8l0 41c0,5 0,8 4,8 2,0 2,0 8,-6 1,-2 5,-6 6,-8 14,13 28,14 36,14 39,0 53,-23 53,-44 0,-14 -7,-23 -14,-30 -10,-10 -22,-13 -45,-17 -8,-2 -31,-6 -31,-24 0,-10 7,-23 36,-23 34,0 36,26 37,34 0,4 0,6 4,6 4,0 4,-3 4,-9l0 -30zm146 61c7,0 9,0 9,-6 0,-33 -18,-63 -58,-63 -38,0 -68,33 -68,72 0,41 33,73 72,73 38,0 54,-34 54,-41 0,-2 -2,-4 -5,-4 -3,0 -4,2 -4,3 -11,33 -39,33 -44,33 -15,0 -28,-8 -35,-19 -11,-16 -11,-35 -11,-48l90 0zm-90 -7c3,-49 32,-54 41,-54 17,0 36,13 36,54l-77 0zm165 7c0,-13 3,-59 39,-59l0 0c0,0 -6,4 -6,12 0,8 7,14 14,14 7,0 14,-5 14,-15 0,-10 -9,-19 -23,-19 -19,0 -33,13 -40,33l0 0 0 -33 -45 3 0 10c21,0 24,2 24,18l0 84c0,15 -3,15 -24,15l0 10c17,-1 21,-1 37,-1 12,0 20,0 40,1l0 -10 -6 0c-23,0 -24,-4 -24,-15l0 -48zm127 -40c-1,-2 -1,-3 -1,-6 0,-8 11,-8 17,-8l0 -10c-13,1 -21,1 -35,1 -11,0 -20,0 -31,-1l0 10c15,0 21,0 25,12l47 112c2,5 4,6 7,6 3,0 5,-1 8,-6l43 -104c6,-16 17,-20 28,-20l0 -10c-9,1 -23,1 -24,1 -9,0 -19,0 -28,-1l0 10c10,1 15,5 15,14 0,3 0,3 -2,7l-32 80 -37 -87zm205 90c2,13 11,25 24,25 8,0 28,-5 28,-31l0 -17 -9 0 0 17c0,4 0,19 -11,19 -11,0 -11,-15 -11,-20l0 -55c0,-18 0,-29 -15,-42 -11,-10 -26,-15 -42,-15 -27,0 -49,13 -49,33 0,10 7,16 15,16 8,0 14,-7 14,-15 0,-14 -13,-15 -14,-15 9,-8 24,-11 33,-11 16,0 34,12 34,40l0 10c-17,1 -41,2 -62,12 -23,12 -29,28 -29,41 0,26 30,34 51,34 27,0 39,-17 43,-26zm-3 -22c0,31 -23,40 -37,40 -15,0 -29,-11 -29,-26 0,-21 18,-43 66,-45l0 31zm160 -82l0 -10 -46 0 0 -58 -9 0c0,27 -11,59 -42,60l0 8 28 0 0 87c0,36 25,43 42,43 21,0 32,-20 32,-43l0 -18 -8 0 0 17c0,24 -10,35 -22,35 -21,0 -21,-28 -21,-33l0 -88 46 0zm82 -13l-46 3 0 10c20,0 23,2 23,17l0 85c0,15 -3,15 -24,15l0 10c14,-1 21,-1 35,-1 5,0 18,0 33,1l0 -10c-20,0 -21,-2 -21,-14l0 -116zm1 -55c0,-10 -8,-17 -18,-17 -9,0 -17,8 -17,17 0,9 8,17 17,17 10,0 18,-8 18,-17zm184 127c0,-41 -33,-74 -72,-74 -40,0 -72,34 -72,74 0,40 33,71 72,71 40,0 72,-32 72,-71zm-72 62c-16,0 -29,-8 -37,-20 -8,-13 -8,-30 -8,-45 0,-11 0,-29 8,-42 9,-16 25,-21 37,-21 18,0 31,10 37,21 7,13 7,29 7,42 0,12 0,30 -7,44 -9,15 -24,21 -37,21zm140 -76c0,-34 23,-50 43,-50 19,0 23,15 23,34l0 73c0,15 -3,15 -24,15l0 10c15,-1 21,-1 36,-1 15,0 19,0 36,1l0 -10c-16,0 -24,0 -25,-10l0 -61c0,-26 0,-35 -8,-46 -8,-9 -20,-13 -35,-13 -30,0 -44,22 -48,30l0 0 0 -30 -46 3 0 10c21,0 24,2 24,18l0 84c0,15 -3,15 -24,15l0 10c15,-1 21,-1 36,-1 15,0 19,0 36,1l0 -10c-21,0 -24,0 -24,-15l0 -57zm230 -52c0,-5 0,-8 -4,-8 -1,0 -2,0 -6,4 -1,0 -4,3 -6,5 -9,-7 -19,-9 -30,-9 -42,0 -52,23 -52,39 0,10 4,18 12,25 10,10 22,12 38,15 17,3 22,4 29,10 3,2 11,8 11,20 0,28 -32,28 -36,28 -33,0 -41,-27 -45,-44 -1,-3 -1,-5 -5,-5 -4,0 -4,3 -4,8l0 41c0,5 0,8 4,8 2,0 2,0 8,-6 1,-2 4,-6 6,-8 13,13 28,14 36,14 39,0 52,-23 52,-44 0,-14 -6,-23 -13,-30 -11,-10 -22,-13 -46,-17 -8,-2 -31,-6 -31,-24 0,-10 7,-23 36,-23 34,0 36,26 37,34 0,4 0,6 4,6 5,0 5,-3 5,-9l0 -30z"/>
  <path class="fil3" d="M990 3954c0,-1 -1,-2 -2,-4 -41,-38 -54,-95 -54,-150 0,-49 10,-108 55,-151 1,-1 1,-2 1,-4 0,-2 -1,-3 -3,-3 -4,0 -33,23 -50,57 -15,31 -23,63 -23,101 0,23 3,59 21,96 18,39 48,62 52,62 2,0 3,-1 3,-4zm91 -207c-26,-6 -34,-27 -34,-40 0,-22 17,-42 44,-42 40,0 57,30 61,62 1,6 2,8 5,8 5,0 5,-2 5,-9l0 -61c0,-6 0,-9 -4,-9 -2,0 -2,1 -5,4 -4,6 -1,2 -11,18 -5,-6 -22,-22 -52,-22 -37,0 -63,29 -63,61 0,25 15,40 16,42 14,14 20,15 58,24 25,6 28,7 39,17 0,1 11,12 11,31 0,22 -16,45 -45,45 -24,0 -68,-10 -70,-62 -1,-5 -1,-7 -5,-7 -4,0 -4,3 -4,9l0 61c0,7 0,9 4,9 2,0 2,0 4,-4 4,-6 1,-2 12,-18 19,19 44,22 60,22 38,0 64,-31 64,-65 0,-18 -7,-32 -14,-42 -14,-17 -28,-21 -49,-25l-27 -7zm235 60c7,0 8,0 8,-7 0,-32 -18,-62 -58,-62 -38,0 -68,32 -68,72 0,41 33,73 72,73 39,0 54,-34 54,-41 0,-3 -1,-5 -4,-5 -3,0 -4,3 -5,4 -10,32 -39,33 -43,33 -16,0 -29,-9 -36,-19 -10,-16 -11,-35 -11,-48l91 0zm-90 -8c3,-49 31,-54 40,-54 17,0 36,14 37,54l-77 0zm210 -46l0 -10 -45 0 0 -58 -9 0c-1,26 -12,59 -42,60l0 8 27 0 0 87c0,35 26,43 43,43 21,0 32,-21 32,-43l0 -18 -9 0 0 17c0,23 -10,35 -21,35 -21,0 -21,-28 -21,-34l0 -87 45 0zm118 47c0,-26 -4,-61 -20,-96 -19,-39 -48,-62 -52,-62 -3,0 -4,3 -4,3 0,2 1,3 3,5 18,17 53,60 53,150 0,45 -8,108 -54,151 -1,1 -2,2 -2,3 0,1 1,4 4,4 4,0 32,-23 49,-57 15,-31 23,-63 23,-101z"/>
  <path class="fil2" d="M4511 466l-52 -155c0,-1 -1,-3 -1,-5 0,-10 18,-10 27,-10l0 -9c-15,1 -30,1 -45,1 -17,0 -19,0 -39,-1l0 9c16,0 22,1 26,6 3,5 9,26 9,26 0,0 -1,4 -1,4l-45 134 -51 -154c-2,-4 -2,-5 -2,-6 0,-10 18,-10 27,-10l0 -9c-15,1 -31,1 -45,1 -17,0 -19,0 -39,-1l0 9c18,0 24,0 28,12l65 195c2,5 3,7 7,7 3,0 5,-1 7,-7l54 -161 53 160c2,5 3,8 7,8 4,0 6,-2 7,-7l62 -184c5,-14 13,-22 32,-23l0 -9c-10,1 -20,1 -30,1 -10,0 -19,-1 -37,-1l0 9c20,1 27,10 27,18 0,1 -1,2 -1,5l-50 147zm223 -31c0,-41 -33,-74 -72,-74 -40,0 -72,34 -72,74 0,40 33,71 72,71 40,0 72,-32 72,-71zm-72 62c-16,0 -29,-8 -36,-20 -8,-13 -9,-30 -9,-45 0,-11 0,-29 8,-42 10,-16 25,-21 37,-21 18,0 31,10 37,21 7,13 8,29 8,42 0,12 0,31 -8,44 -9,15 -24,21 -37,21zm137 -67c0,-13 4,-59 40,-59l0 0c-1,0 -6,4 -6,12 0,8 7,14 14,14 7,0 14,-5 14,-15 0,-10 -9,-19 -24,-19 -19,0 -32,13 -39,33l0 0 0 -33 -45 3 0 10c21,0 24,2 24,18l0 84c0,15 -4,15 -24,15l0 10c16,-1 20,-1 37,-1 12,0 20,0 40,1l0 -10 -7 0c-23,0 -24,-4 -24,-15l0 -48zm129 -147l-46 4 0 9c21,0 24,3 24,18l0 164c0,15 -3,15 -24,15l0 10c15,-1 21,-1 35,-1 15,0 20,0 36,1l0 -10c-21,0 -25,0 -25,-15l0 -195zm155 182c0,5 0,6 -4,13 -10,14 -25,20 -37,20 -14,0 -27,-7 -35,-21 -8,-13 -9,-32 -9,-42 0,-15 2,-32 10,-44 7,-10 20,-20 37,-20 13,0 26,6 35,18 3,5 3,6 3,12l0 64zm1 -83c-1,-2 -15,-19 -40,-19 -39,0 -73,31 -73,72 0,39 32,71 69,71 24,0 38,-13 43,-20l0 20 48 -3 0 -10c-21,0 -24,-2 -24,-18l0 -192 -47 4 0 9c22,0 24,3 24,18l0 68zm274 -13c0,-5 0,-8 -4,-8 -1,0 -2,0 -6,4 -1,0 -4,3 -5,5 -10,-7 -20,-9 -31,-9 -42,0 -52,23 -52,39 0,10 4,19 12,25 10,10 22,13 39,15 16,4 21,4 28,10 3,2 11,8 11,20 0,28 -32,28 -36,28 -33,0 -41,-27 -45,-44 0,-3 -1,-5 -5,-5 -4,0 -4,3 -4,8l0 41c0,5 0,8 4,8 2,0 2,0 8,-6 1,-2 4,-6 6,-8 13,13 28,14 36,14 39,0 52,-23 52,-44 0,-14 -6,-23 -13,-30 -11,-10 -22,-13 -46,-17 -8,-2 -31,-6 -31,-24 0,-10 7,-23 36,-23 34,0 37,26 37,34 0,4 0,6 5,6 4,0 4,-2 4,-8l0 -31zm122 7l0 -10 -46 0 0 -58 -9 0c0,27 -11,59 -42,60l0 8 28 0 0 87c0,36 25,43 42,43 21,0 32,-20 32,-43l0 -18 -8 0 0 18c0,23 -10,34 -22,34 -21,0 -21,-28 -21,-33l0 -88 46 0zm132 104c1,13 10,25 24,25 8,0 28,-5 28,-30l0 -18 -9 0 0 17c0,4 0,20 -11,20 -12,0 -12,-16 -12,-21l0 -55c0,-18 0,-29 -14,-42 -12,-10 -27,-15 -43,-15 -26,0 -48,13 -48,33 0,10 6,16 14,16 9,0 15,-7 15,-15 0,-13 -14,-15 -14,-15 8,-8 24,-11 33,-11 16,0 34,12 34,40l0 10c-17,1 -41,2 -62,13 -23,11 -30,27 -30,40 0,26 31,34 52,34 26,0 38,-17 43,-26zm-3 -22c0,31 -24,40 -38,40 -15,0 -29,-11 -29,-26 0,-21 18,-43 67,-45l0 31zm160 -82l0 -10 -46 0 0 -58 -9 0c0,27 -12,59 -42,60l0 8 27 0 0 87c0,36 26,43 43,43 21,0 32,-20 32,-43l0 -18 -9 0 0 18c0,23 -10,34 -21,34 -21,0 -21,-28 -21,-33l0 -88 46 0zm150 54c6,0 8,0 8,-6 0,-33 -18,-63 -58,-63 -38,0 -68,33 -68,72 0,42 33,73 72,73 39,0 54,-34 54,-41 0,-2 -2,-4 -4,-4 -4,0 -4,2 -5,3 -11,33 -39,33 -43,33 -16,0 -29,-8 -36,-19 -10,-15 -11,-34 -11,-48l91 0zm-90 -7c3,-49 31,-54 40,-54 17,0 36,13 37,54l-77 0z"/>
  <path class="fil3" d="M4862 965c0,-2 -1,-3 -3,-5 -41,-38 -53,-94 -53,-150 0,-49 9,-108 54,-151 1,-1 2,-2 2,-4 0,-2 -2,-3 -4,-3 -4,0 -32,23 -49,57 -16,31 -23,63 -23,101 0,23 3,59 20,96 19,39 48,62 52,62 2,0 4,-1 4,-3zm90 -208c-25,-6 -34,-27 -34,-40 0,-22 17,-42 44,-42 41,0 57,30 62,62 1,6 1,8 5,8 4,0 4,-2 4,-9l0 -61c0,-6 0,-9 -4,-9 -2,0 -2,1 -4,4 -4,6 -1,2 -12,18 -5,-6 -22,-22 -51,-22 -37,0 -64,29 -64,61 0,25 15,40 17,42 14,14 19,15 57,24 26,6 29,7 39,17 0,1 11,13 11,31 0,22 -15,45 -44,45 -25,0 -69,-10 -71,-62 0,-5 0,-7 -4,-7 -5,0 -5,3 -5,9l0 61c0,7 0,9 4,9 2,0 2,0 5,-4 4,-6 1,-1 11,-18 20,19 45,22 60,22 39,0 64,-31 64,-65 0,-18 -6,-32 -14,-42 -14,-17 -28,-21 -48,-25l-28 -7zm235 60c7,0 8,0 8,-7 0,-32 -17,-62 -58,-62 -38,0 -67,32 -67,72 0,41 33,73 71,73 39,0 54,-34 54,-41 0,-3 -1,-4 -4,-4 -3,0 -4,2 -4,3 -11,32 -39,33 -44,33 -15,0 -28,-9 -36,-19 -10,-16 -10,-35 -10,-48l90 0zm-90 -8c3,-48 31,-54 40,-54 18,0 37,14 37,54l-77 0zm211 -46l0 -10 -46 0 0 -58 -9 0c0,26 -11,59 -42,60l0 8 27 0 0 87c0,35 26,43 43,43 21,0 32,-21 32,-43l0 -18 -9 0 0 17c0,23 -10,35 -21,35 -21,0 -21,-28 -21,-34l0 -87 46 0zm117 47c0,-26 -3,-61 -20,-96 -19,-39 -48,-62 -52,-62 -3,0 -4,3 -4,3 0,2 1,3 3,5 19,17 53,60 53,150 0,45 -8,108 -54,151 0,1 -2,2 -2,4 0,0 1,3 4,3 4,0 33,-23 50,-57 15,-31 22,-63 22,-101z"/>
  <path class="fil2" d="M4224 6313c-1,-4 -2,-7 -7,-7 -5,0 -6,2 -8,7l-68 188c-4,11 -11,22 -35,22l0 10c12,-1 20,-1 32,-1 11,0 18,0 36,1l0 -10c-18,0 -24,-10 -24,-16 0,-3 1,-4 2,-6l14 -41 82 0 17 48c2,3 2,4 2,6 0,9 -18,9 -26,9l0 10c14,-1 31,-1 45,-1 15,0 15,0 42,1l0 -10 -6 0c-19,0 -23,-3 -26,-12l-72 -198zm21 137l-75 0 37 -103 38 103zm133 26c8,5 18,10 32,10 30,0 53,-21 53,-46 0,-16 -9,-27 -13,-31 13,-11 28,-11 31,-11 -1,0 -4,2 -4,8 0,3 3,9 10,9 4,0 9,-3 9,-10 0,-6 -4,-15 -17,-15 -9,0 -23,3 -34,14 -9,-6 -21,-11 -34,-11 -30,0 -53,22 -53,47 0,16 9,27 14,32 0,0 -9,12 -9,26 0,11 5,22 13,28 -16,5 -28,17 -28,32 0,22 31,40 71,40 39,0 73,-17 73,-41 0,-13 -6,-27 -18,-35 -18,-11 -36,-11 -66,-11 -7,0 -17,0 -19,0 -9,-2 -15,-11 -15,-21 0,-5 1,-10 4,-14zm32 2c-28,0 -28,-31 -28,-38 0,-9 1,-20 6,-27 5,-7 13,-11 22,-11 29,0 29,30 29,38 0,7 0,38 -29,38zm15 53c10,0 49,1 49,26 0,18 -25,33 -54,33 -31,0 -55,-15 -55,-33 0,-5 4,-26 31,-26l29 0zm202 -71c7,0 9,0 9,-6 0,-33 -18,-63 -58,-63 -38,0 -68,33 -68,72 0,42 33,73 72,73 38,0 54,-33 54,-41 0,-2 -2,-4 -5,-4 -3,0 -4,2 -4,4 -11,32 -39,33 -44,33 -15,0 -28,-9 -35,-20 -11,-15 -11,-34 -11,-48l90 0zm-90 -7c3,-49 32,-54 41,-54 17,0 36,13 36,54l-77 0zm167 -2c0,-34 24,-50 44,-50 18,0 23,16 23,34l0 74c0,14 -4,14 -25,14l0 10c15,-1 21,-1 36,-1 15,0 20,0 36,1l0 -10c-16,0 -24,0 -24,-10l0 -60c0,-27 0,-36 -9,-47 -7,-9 -19,-13 -35,-13 -29,0 -43,22 -47,31l-1 0 0 -31 -46 4 0 9c22,0 25,3 25,18l0 85c0,14 -4,14 -25,14l0 10c15,-1 21,-1 36,-1 16,0 20,0 36,1l0 -10c-20,0 -24,0 -24,-14l0 -58zm215 -45l0 -9 -46 0 0 -59 -8 0c-1,27 -12,60 -43,60l0 8 28 0 0 88c0,35 26,42 42,42 22,0 33,-20 33,-42l0 -18 -9 0 0 17c0,23 -10,35 -21,35 -22,0 -22,-28 -22,-34l0 -88 46 0zm90 -59c0,-20 -8,-34 -21,-34 -12,0 -18,9 -18,17 0,9 6,18 18,18 4,0 8,-2 11,-5 1,0 1,-1 2,-1 0,0 0,2 0,5 0,21 -9,40 -25,55 0,0 -1,1 -1,3 0,1 2,4 4,4 3,0 30,-24 30,-62zm133 52c0,-5 0,-8 -4,-8 -2,0 -2,0 -7,4 0,1 -3,3 -5,5 -10,-7 -20,-9 -30,-9 -42,0 -52,23 -52,39 0,11 4,19 11,26 11,10 23,12 39,15 16,3 22,4 29,9 3,3 11,9 11,21 0,27 -32,27 -37,27 -32,0 -40,-26 -44,-43 -1,-4 -1,-6 -5,-6 -4,0 -4,3 -4,9l0 40c0,6 0,8 3,8 2,0 3,0 8,-6 2,-2 5,-6 7,-8 13,13 27,14 35,14 39,0 53,-22 53,-44 0,-14 -7,-22 -13,-30 -11,-10 -23,-12 -46,-17 -8,-1 -31,-5 -31,-23 0,-11 7,-24 36,-24 34,0 36,26 37,34 0,4 0,6 4,6 5,0 5,-2 5,-8l0 -31zm186 -86l-47 4 0 10c21,0 24,2 24,17l0 165c0,14 -3,14 -24,14l0 10c15,-1 21,-1 35,-1 15,0 20,0 36,1l0 -10c-21,0 -24,0 -24,-14l0 -196zm140 197c1,13 10,25 24,25 8,0 28,-5 28,-30l0 -18 -9 0 0 17c0,4 0,20 -11,20 -12,0 -12,-15 -12,-21l0 -55c0,-18 0,-29 -14,-42 -12,-10 -27,-15 -43,-15 -26,0 -48,13 -48,34 0,10 6,15 14,15 9,0 15,-6 15,-15 0,-13 -14,-15 -14,-15 8,-8 24,-11 33,-11 16,0 34,12 34,40l0 10c-17,1 -41,3 -62,13 -23,11 -30,27 -30,40 0,26 31,34 52,34 26,0 38,-17 43,-26zm-3 -22c0,31 -24,40 -38,40 -15,0 -29,-10 -29,-26 0,-21 18,-43 67,-45l0 31zm160 -82l0 -9 -46 0 0 -59 -9 0c0,27 -12,60 -42,60l0 8 27 0 0 88c0,35 26,42 43,42 21,0 32,-20 32,-42l0 -18 -9 0 0 17c0,23 -10,35 -21,35 -21,0 -21,-28 -21,-34l0 -88 46 0zm150 54c6,0 8,0 8,-6 0,-33 -18,-63 -58,-63 -38,0 -68,33 -68,72 0,42 33,73 72,73 39,0 54,-33 54,-41 0,-2 -2,-4 -4,-4 -4,0 -4,2 -5,4 -11,32 -39,33 -43,33 -16,0 -29,-9 -36,-20 -10,-15 -11,-34 -11,-48l91 0zm-90 -7c3,-49 31,-54 40,-54 17,0 36,13 37,54l-77 0zm166 -2c0,-34 24,-50 44,-50 19,0 23,16 23,34l0 74c0,14 -4,14 -25,14l0 10c15,-1 21,-1 37,-1 15,0 19,0 36,1l0 -10c-17,0 -24,0 -25,-10l0 -60c0,-27 0,-36 -9,-47 -7,-9 -19,-13 -35,-13 -29,0 -43,22 -47,31l0 0 0 -31 -46 4 0 9c21,0 24,3 24,18l0 85c0,14 -3,14 -24,14l0 10c15,-1 21,-1 36,-1 15,0 19,0 36,1l0 -10c-21,0 -25,0 -25,-14l0 -58zm216 -45l0 -9 -46 0 0 -59 -9 0c-1,27 -12,60 -42,60l0 8 27 0 0 88c0,35 26,42 43,42 21,0 32,-20 32,-42l0 -18 -9 0 0 17c0,23 -10,35 -21,35 -21,0 -21,-28 -21,-34l0 -88 46 0z"/>
  <path class="fil2" d="M4141 6847c0,-13 4,-59 40,-59l0 0c-1,0 -6,4 -6,12 0,8 7,14 14,14 7,0 14,-5 14,-15 0,-10 -9,-19 -24,-19 -19,0 -32,13 -39,33l-1 0 0 -33 -44 3 0 10c21,0 24,2 24,18l0 84c0,15 -4,15 -24,15l0 10c16,-1 20,-1 37,-1 12,0 20,0 40,1l0 -10 -7 0c-23,0 -24,-4 -24,-15l0 -48zm198 0c7,0 8,0 8,-7 0,-32 -17,-62 -58,-62 -38,0 -68,33 -68,72 0,41 34,73 72,73 39,0 54,-34 54,-41 0,-2 -1,-4 -4,-4 -3,0 -4,2 -5,3 -10,33 -38,33 -43,33 -15,0 -28,-8 -36,-19 -10,-16 -10,-35 -10,-48l90 0zm-90 -8c3,-48 31,-53 40,-53 17,0 36,13 37,53l-77 0zm165 -26c11,-18 28,-24 41,-24 25,0 44,28 44,62 0,36 -21,64 -47,64 -14,0 -26,-8 -34,-19 -4,-7 -4,-7 -4,-13l0 -70zm0 91c8,9 19,19 40,19 38,0 72,-30 72,-72 0,-40 -31,-71 -68,-71 -17,0 -33,7 -45,20l0 -20 -47 3 0 10c23,0 25,2 25,15l0 149c0,14 -4,14 -25,14l0 10c15,-1 21,-1 36,-1 16,0 20,0 36,1l0 -10c-20,0 -24,0 -24,-14l0 -53zm179 -57c0,-13 4,-59 40,-59l0 0c-1,0 -6,4 -6,12 0,8 7,14 14,14 7,0 14,-5 14,-15 0,-10 -9,-19 -24,-19 -19,0 -32,13 -39,33l-1 0 0 -33 -44 3 0 10c21,0 24,2 24,18l0 84c0,15 -4,15 -24,15l0 10c16,-1 20,-1 37,-1 12,0 20,0 40,1l0 -10 -7 0c-23,0 -24,-4 -24,-15l0 -48zm198 0c7,0 8,0 8,-7 0,-32 -17,-62 -58,-62 -38,0 -68,33 -68,72 0,41 34,73 72,73 39,0 54,-34 54,-41 0,-2 -1,-4 -4,-4 -3,0 -4,2 -5,3 -10,33 -38,33 -43,33 -15,0 -28,-8 -36,-19 -10,-16 -10,-35 -10,-48l90 0zm-90 -8c3,-48 31,-53 40,-53 18,0 36,13 37,53l-77 0zm217 -53c0,-5 0,-8 -4,-8 -2,0 -2,0 -7,4 0,0 -3,3 -5,5 -10,-7 -19,-9 -30,-9 -42,0 -52,23 -52,39 0,10 4,18 11,25 11,10 23,12 39,15 16,3 22,4 29,10 3,2 11,8 11,20 0,28 -32,28 -37,28 -32,0 -40,-27 -44,-44 -1,-3 -1,-5 -5,-5 -4,0 -4,3 -4,8l0 41c0,5 0,8 3,8 2,0 3,0 8,-6 2,-2 5,-6 7,-8 13,13 27,14 35,14 39,0 53,-23 53,-44 0,-14 -6,-23 -13,-30 -11,-10 -23,-13 -46,-17 -8,-2 -31,-6 -31,-24 0,-10 7,-23 36,-23 34,0 36,26 37,34 0,4 0,6 4,6 5,0 5,-3 5,-9l0 -30zm145 61c7,0 9,0 9,-7 0,-32 -18,-62 -58,-62 -38,0 -68,33 -68,72 0,41 33,73 72,73 38,0 54,-34 54,-41 0,-2 -2,-4 -4,-4 -4,0 -5,2 -5,3 -11,33 -39,33 -44,33 -15,0 -28,-8 -35,-19 -10,-16 -11,-35 -11,-48l90 0zm-89 -8c2,-48 31,-53 40,-53 17,0 36,13 36,53l-76 0zm166 -1c0,-34 24,-50 44,-50 19,0 23,15 23,34l0 73c0,15 -4,15 -25,15l0 10c15,-1 21,-1 36,-1 16,0 20,0 36,1l0 -10c-16,0 -24,0 -24,-10l0 -61c0,-26 0,-35 -9,-46 -7,-9 -19,-13 -35,-13 -29,0 -43,22 -47,30l-1 0 0 -30 -45 3 0 10c21,0 24,2 24,18l0 84c0,15 -4,15 -24,15l0 10c14,-1 20,-1 36,-1 15,0 19,0 36,1l0 -10c-21,0 -25,0 -25,-15l0 -57zm215 -45l0 -10 -45 0 0 -58 -9 0c-1,27 -12,59 -42,60l0 8 27 0 0 87c0,36 26,43 43,43 21,0 32,-20 32,-43l0 -18 -9 0 0 17c0,24 -10,35 -21,35 -21,0 -21,-28 -21,-33l0 -88 45 0zm132 104c2,13 11,24 24,24 8,0 28,-4 28,-30l0 -17 -9 0 0 17c0,4 0,19 -11,19 -11,0 -11,-15 -11,-20l0 -55c0,-18 0,-29 -15,-42 -11,-10 -27,-15 -42,-15 -27,0 -49,13 -49,33 0,10 7,16 15,16 8,0 14,-7 14,-15 0,-14 -14,-15 -14,-15 9,-8 24,-11 33,-11 16,0 34,12 34,40l0 10c-17,1 -41,2 -62,12 -23,11 -30,28 -30,41 0,25 31,34 52,34 27,0 39,-17 43,-26zm-3 -22c0,31 -24,40 -37,40 -15,0 -29,-11 -29,-26 0,-21 18,-44 66,-45l0 31zm160 -82l0 -10 -46 0 0 -58 -9 0c0,27 -11,59 -42,60l0 8 28 0 0 87c0,36 25,43 42,43 21,0 32,-20 32,-43l0 -18 -9 0 0 17c0,24 -9,35 -21,35 -21,0 -21,-28 -21,-33l0 -88 46 0zm81 -13l-45 3 0 10c20,0 23,2 23,17l0 85c0,15 -3,15 -24,15l0 10c14,-1 21,-1 34,-1 6,0 19,0 34,1l0 -10c-20,0 -22,-2 -22,-14l0 -116zm1 -55c0,-10 -7,-17 -17,-17 -9,0 -17,7 -17,17 0,9 8,17 17,17 10,0 17,-8 17,-17zm185 127c0,-41 -33,-74 -72,-74 -40,0 -72,34 -72,74 0,40 33,71 71,71 41,0 73,-32 73,-71zm-72 62c-16,0 -29,-8 -37,-20 -8,-13 -8,-30 -8,-45 0,-11 0,-29 8,-42 9,-17 25,-21 36,-21 18,0 31,10 38,21 7,13 7,29 7,42 0,12 0,30 -8,44 -8,15 -23,21 -36,21zm140 -76c0,-34 23,-50 43,-50 19,0 23,15 23,34l0 73c0,15 -4,15 -24,15l0 10c14,-1 20,-1 36,-1 15,0 19,0 36,1l0 -10c-16,0 -24,0 -25,-10l0 -61c0,-26 0,-35 -8,-46 -8,-9 -20,-13 -36,-13 -29,0 -43,22 -47,30l0 0 0 -30 -46 3 0 10c21,0 24,2 24,18l0 84c0,15 -3,15 -24,15l0 10c15,-1 21,-1 36,-1 15,0 19,0 36,1l0 -10c-21,0 -24,0 -24,-15l0 -57z"/>
  <path class="fil3" d="M4180 7381c0,-1 -1,-2 -3,-4 -41,-38 -53,-95 -53,-150 0,-49 9,-108 54,-151 1,-1 2,-2 2,-4 0,-2 -2,-3 -4,-3 -4,0 -32,23 -49,57 -15,31 -23,63 -23,101 0,23 3,59 20,96 19,39 48,62 52,62 2,0 4,-1 4,-4zm86 -266c-1,-3 -1,-5 -1,-6 0,-9 16,-9 25,-9l0 -10c-14,1 -30,1 -45,1 -13,0 -18,0 -40,-1l0 10c23,0 26,1 31,12l76 194c2,5 3,7 8,7 5,0 6,-2 8,-6l73 -186c7,-17 20,-21 34,-21l0 -10c-11,1 -20,1 -31,1 -13,0 -20,0 -35,-1l0 10c15,0 22,7 22,16 0,2 0,3 -1,6l-61 153 -63 -160zm275 119c7,0 9,0 9,-7 0,-33 -18,-63 -59,-63 -38,0 -67,33 -67,73 0,41 33,73 72,73 38,0 54,-34 54,-42 0,-2 -2,-4 -5,-4 -3,0 -4,3 -4,4 -11,32 -39,33 -44,33 -15,0 -28,-9 -35,-20 -11,-15 -11,-34 -11,-47l90 0zm-90 -8c3,-49 32,-54 40,-54 18,0 37,14 37,54l-77 0zm223 -44c-6,1 -13,6 -13,15 0,8 7,14 15,14 8,0 15,-5 15,-15 0,-20 -22,-32 -50,-32 -41,0 -71,34 -71,74 0,41 33,72 70,72 44,0 54,-39 54,-42 0,-3 -3,-3 -4,-3 -4,0 -4,0 -6,6 -7,22 -25,30 -41,30 -20,0 -46,-17 -46,-64 0,-49 25,-64 44,-64 4,0 22,1 33,9zm132 -2l0 -10 -46 0 0 -58 -9 0c0,26 -11,59 -42,60l0 8 28 0 0 87c0,35 25,43 42,43 21,0 33,-21 33,-43l0 -18 -9 0 0 17c0,23 -10,35 -22,35 -21,0 -21,-28 -21,-34l0 -87 46 0zm177 59c0,-42 -33,-75 -72,-75 -40,0 -72,34 -72,75 0,39 33,71 72,71 40,0 72,-32 72,-71zm-72 62c-16,0 -29,-8 -37,-20 -8,-14 -8,-31 -8,-45 0,-12 0,-30 8,-43 9,-16 25,-21 37,-21 18,0 31,10 37,21 7,13 7,30 7,43 0,12 0,30 -7,44 -9,14 -24,21 -37,21zm137 -67c0,-13 4,-60 40,-60l0 1c-1,0 -6,4 -6,11 0,9 7,14 14,14 7,0 14,-5 14,-14 0,-10 -10,-20 -24,-20 -19,0 -32,14 -39,33l-1 0 0 -33 -45 4 0 10c22,0 25,2 25,17l0 85c0,14 -4,14 -25,14l0 10c17,-1 21,-1 37,-1 13,0 21,0 40,1l0 -10 -6 0c-23,0 -24,-3 -24,-15l0 -47zm288 -61c0,-6 0,-9 -4,-9 -1,0 -2,0 -6,4 0,1 -3,4 -5,5 -10,-7 -20,-9 -31,-9 -41,0 -52,24 -52,40 0,10 5,18 12,25 11,10 23,12 39,15 16,3 21,4 28,9 3,3 11,9 11,21 0,28 -32,28 -36,28 -32,0 -40,-27 -44,-44 -1,-3 -2,-5 -5,-5 -5,0 -5,2 -5,8l0 40c0,6 0,9 4,9 2,0 2,-1 8,-7 1,-2 5,-6 6,-7 14,13 28,14 36,14 39,0 53,-23 53,-44 0,-15 -7,-23 -14,-30 -11,-11 -22,-13 -45,-17 -9,-2 -32,-6 -32,-24 0,-10 8,-24 36,-24 35,0 37,27 37,35 1,3 1,5 5,5 4,0 4,-2 4,-8l0 -30zm77 27c11,-19 28,-25 41,-25 25,0 44,29 44,63 0,36 -22,64 -47,64 -14,0 -26,-9 -34,-20 -4,-6 -4,-7 -4,-13l0 -69zm0 91c8,8 19,19 40,19 37,0 72,-31 72,-72 0,-40 -31,-72 -68,-72 -17,0 -33,7 -45,20l0 -20 -47 4 0 10c23,0 24,1 24,15l0 148c0,15 -3,15 -24,15l0 9c15,0 21,0 36,0 15,0 19,0 36,0l0 -9c-21,0 -24,0 -24,-15l0 -52zm231 -8c2,14 11,25 24,25 8,0 28,-5 28,-30l0 -18 -9 0 0 18c0,3 0,19 -11,19 -11,0 -11,-15 -11,-20l0 -56c0,-18 0,-28 -15,-41 -11,-11 -26,-16 -42,-16 -27,0 -49,14 -49,34 0,10 7,15 15,15 8,0 14,-6 14,-14 0,-14 -14,-16 -14,-16 9,-8 24,-11 33,-11 16,0 34,12 34,40l0 11c-17,0 -41,2 -62,12 -23,11 -30,27 -30,40 0,26 31,35 52,35 27,0 39,-18 43,-27zm-3 -21c0,30 -24,40 -37,40 -15,0 -29,-11 -29,-27 0,-21 18,-43 66,-45l0 32zm172 -80c-6,1 -13,6 -13,15 0,8 7,14 15,14 8,0 15,-5 15,-15 0,-20 -22,-32 -50,-32 -41,0 -71,34 -71,74 0,41 33,72 70,72 44,0 54,-39 54,-42 0,-3 -3,-3 -4,-3 -4,0 -4,0 -6,6 -7,22 -25,30 -41,30 -20,0 -46,-17 -46,-64 0,-49 25,-64 44,-64 5,0 22,1 33,9zm156 52c7,0 8,0 8,-7 0,-33 -17,-63 -58,-63 -38,0 -67,33 -67,73 0,41 33,73 71,73 39,0 54,-34 54,-42 0,-2 -1,-4 -4,-4 -3,0 -4,3 -4,4 -11,32 -39,33 -44,33 -15,0 -28,-9 -35,-20 -11,-15 -11,-34 -11,-47l90 0zm-90 -8c3,-49 31,-54 40,-54 18,0 37,14 37,54l-77 0zm202 1c0,-26 -4,-61 -20,-96 -19,-39 -48,-62 -52,-62 -3,0 -4,2 -4,3 0,2 1,3 3,5 18,17 53,60 53,150 0,45 -8,108 -54,151 0,1 -2,2 -2,3 0,1 1,4 4,4 4,0 32,-23 49,-57 16,-31 23,-63 23,-101z"/>
  <path class="fil1" d="M6859 205c0,-5 0,-8 -4,-8 -2,0 -3,1 -5,4l-16 24c-10,-10 -28,-28 -60,-28 -62,0 -113,51 -113,115 0,65 51,115 113,115 30,0 53,-11 61,-27 6,9 17,20 20,20 4,0 4,-3 4,-8l0 -54c0,-13 1,-15 22,-15l0 -9c-20,1 -24,1 -40,1 -13,0 -40,0 -51,-1l0 9 10 0c29,0 30,4 30,16l0 20c0,38 -48,38 -52,38 -26,0 -85,-15 -85,-105 0,-88 57,-105 84,-105 31,0 64,24 72,75 0,4 1,6 5,6 5,0 5,-2 5,-9l0 -74zm95 143c0,-13 3,-60 39,-60l0 1c0,0 -5,4 -5,11 0,9 6,14 14,14 6,0 13,-4 13,-14 0,-10 -9,-20 -23,-20 -19,0 -33,14 -40,33l0 0 0 -33 -45 4 0 10c21,0 24,2 24,17l0 85c0,14 -3,14 -24,14l0 10c17,0 21,-1 37,-1 13,0 20,1 40,1l0 -10 -6 0c-23,0 -24,-3 -24,-15l0 -47zm224 5c0,-42 -33,-74 -72,-74 -40,0 -72,33 -72,74 0,39 33,71 72,71 40,0 72,-32 72,-71zm-72 62c-16,0 -29,-8 -36,-20 -9,-14 -9,-30 -9,-45 0,-12 0,-30 8,-43 9,-16 25,-21 37,-21 18,0 31,11 37,21 7,14 8,30 8,43 0,12 0,30 -8,44 -9,15 -24,21 -37,21zm206 -48c0,29 -16,49 -38,49 -27,0 -28,-14 -28,-31l0 -105 -48 4 0 10c24,0 24,1 24,29l0 47c0,21 0,34 15,45 9,7 22,9 35,9 16,0 32,-8 41,-27l0 0 0 27 47 -4 0 -10c-22,0 -24,-2 -24,-17l0 -113 -48 4 0 10c21,0 24,2 24,17l0 56zm112 -53c11,-18 29,-25 42,-25 25,0 44,29 44,63 0,36 -22,64 -48,64 -14,0 -26,-8 -33,-19 -5,-7 -5,-7 -5,-13l0 -70zm0 91c9,8 19,19 40,19 38,0 73,-31 73,-72 0,-40 -31,-72 -69,-72 -17,0 -32,7 -45,20l0 -20 -46 4 0 10c22,0 24,2 24,15l0 148c0,15 -3,15 -24,15l0 10c15,-1 21,-1 36,-1 15,0 19,0 36,1l0 -10c-21,0 -25,0 -25,-15l0 -52zm385 -52c0,-42 -33,-74 -72,-74 -40,0 -72,33 -72,74 0,39 33,71 72,71 40,0 72,-32 72,-71zm-72 62c-16,0 -29,-8 -36,-20 -9,-14 -9,-30 -9,-45 0,-12 0,-30 8,-43 9,-16 25,-21 37,-21 18,0 31,11 37,21 7,14 8,30 8,43 0,12 0,30 -8,44 -9,15 -24,21 -37,21zm176 -121l0 -10 -38 0 0 -36c0,-29 16,-43 29,-43 3,0 7,1 10,2 -3,1 -8,5 -8,13 0,8 6,14 13,14 9,0 15,-6 15,-14 0,-12 -12,-23 -30,-23 -24,0 -50,19 -50,51l0 36 -25 0 0 10 25 0 0 102c0,14 -4,14 -25,14l0 10c17,0 21,-1 37,-1 13,0 21,1 41,1l0 -10 -7 0c-23,0 -24,-3 -24,-15l0 -101 37 0z"/>
  <path class="fil1" d="M6588 673c0,-5 0,-8 -4,-8 -1,0 -2,0 -6,4 -1,1 -4,3 -6,5 -9,-7 -19,-9 -30,-9 -42,0 -52,23 -52,39 0,10 4,19 12,26 10,9 22,12 39,15 16,3 21,4 28,9 3,3 11,9 11,21 0,27 -32,27 -36,27 -33,0 -41,-26 -45,-44 -1,-3 -1,-5 -5,-5 -4,0 -4,3 -4,9l0 40c0,5 0,8 4,8 2,0 2,0 8,-6 1,-2 4,-6 6,-8 13,13 28,14 36,14 39,0 52,-22 52,-44 0,-14 -6,-22 -13,-30 -11,-10 -22,-12 -46,-17 -8,-1 -31,-5 -31,-23 0,-11 7,-24 36,-24 34,0 36,26 37,34 0,4 0,6 5,6 4,0 4,-2 4,-8l0 -31zm77 22c-2,-4 -2,-6 -2,-6 0,-9 11,-9 17,-9l0 -9c-15,0 -22,0 -35,0 -1,0 -19,0 -31,0l0 9c14,0 20,1 24,9l50 118 -8 19c-7,16 -16,38 -37,38 -8,0 -13,-4 -14,-5 3,0 11,-3 11,-14 0,-8 -6,-13 -13,-13 -8,0 -13,5 -13,14 0,14 13,26 29,26 21,0 34,-19 42,-36l57 -134c4,-8 9,-21 30,-22l0 -9c-10,0 -20,0 -24,0 -9,0 -19,0 -28,0l0 9c15,1 15,12 15,14 0,3 -2,6 -3,9l-32 75 -35 -83zm173 30c0,-34 24,-50 43,-50 18,0 23,12 23,34l0 73c0,15 -3,15 -24,15l0 10c15,-1 21,-1 36,-1 15,0 19,0 36,1l0 -10c-21,0 -24,0 -24,-15l0 -57c0,-34 24,-50 43,-50 18,0 23,12 23,34l0 73c0,15 -3,15 -24,15l0 10c15,-1 21,-1 36,-1 15,0 19,0 36,1l0 -10c-16,0 -24,0 -24,-10l0 -60c0,-28 0,-37 -11,-49 -6,-7 -19,-11 -33,-11 -23,0 -39,13 -48,30 -3,-19 -16,-30 -43,-30 -25,0 -40,16 -47,31l0 0 0 -31 -46 4 0 9c21,0 24,3 24,18l0 84c0,15 -3,15 -24,15l0 10c15,-1 21,-1 36,-1 15,0 19,0 36,1l0 -10c-21,0 -24,0 -24,-15l0 -57zm270 0c0,-34 25,-50 44,-50 17,0 23,12 23,34l0 73c0,15 -3,15 -24,15l0 10c15,-1 21,-1 36,-1 15,0 19,0 36,1l0 -10c-21,0 -25,0 -25,-15l0 -57c0,-34 25,-50 44,-50 17,0 23,12 23,34l0 73c0,15 -3,15 -24,15l0 10c15,-1 21,-1 36,-1 15,0 19,0 36,1l0 -10c-16,0 -24,0 -24,-10l0 -60c0,-28 0,-37 -11,-49 -6,-7 -19,-11 -34,-11 -22,0 -38,13 -47,30 -4,-19 -16,-30 -43,-30 -25,0 -41,16 -47,31l-1 0 0 -31 -45 4 0 9c21,0 24,3 24,18l0 84c0,15 -4,15 -24,15l0 10c14,-1 20,-1 36,-1 15,0 19,0 36,1l0 -10c-21,0 -25,0 -25,-15l0 -57zm339 9c7,0 8,0 8,-6 0,-33 -17,-63 -58,-63 -38,0 -68,33 -68,72 0,42 34,73 72,73 39,0 54,-34 54,-41 0,-2 -1,-4 -4,-4 -3,0 -4,2 -5,4 -10,32 -38,32 -43,32 -15,0 -28,-8 -36,-19 -10,-15 -10,-34 -10,-48l90 0zm-90 -7c3,-49 31,-54 40,-54 17,0 36,13 37,54l-77 0zm211 -47l0 -9 -46 0 0 -59 -9 0c0,27 -12,59 -42,60l0 8 27 0 0 88c0,35 26,42 43,42 21,0 32,-20 32,-42l0 -18 -9 0 0 17c0,23 -10,34 -21,34 -21,0 -21,-27 -21,-33l0 -88 46 0zm79 54c0,-13 4,-59 40,-59l0 0c-1,1 -6,4 -6,12 0,9 7,14 14,14 7,0 14,-5 14,-14 0,-10 -9,-20 -24,-20 -19,0 -32,13 -39,33l-1 0 0 -33 -45 4 0 9c22,0 25,3 25,18l0 84c0,15 -4,15 -25,15l0 10c17,-1 21,-1 38,-1 12,0 20,0 40,1l0 -10 -7 0c-23,0 -24,-3 -24,-15l0 -48zm129 -67l-45 4 0 9c20,0 23,2 23,18l0 84c0,15 -4,15 -24,15l0 10c14,-1 20,-1 34,-1 5,0 19,0 34,1l0 -10c-20,0 -22,-2 -22,-14l0 -116zm1 -55c0,-9 -7,-17 -17,-17 -10,0 -17,8 -17,17 0,9 7,17 17,17 10,0 17,-8 17,-17zm158 122c7,0 8,0 8,-6 0,-33 -17,-63 -58,-63 -38,0 -68,33 -68,72 0,42 34,73 72,73 39,0 54,-34 54,-41 0,-2 -1,-4 -4,-4 -3,0 -4,2 -4,4 -11,32 -39,32 -44,32 -15,0 -28,-8 -36,-19 -10,-15 -10,-34 -10,-48l90 0zm-90 -7c3,-49 31,-54 40,-54 18,0 37,13 37,54l-77 0zm217 -54c0,-5 0,-8 -4,-8 -2,0 -2,0 -6,4 -1,1 -4,3 -6,5 -10,-7 -19,-9 -30,-9 -42,0 -52,23 -52,39 0,10 4,19 11,26 11,9 23,12 39,15 16,3 22,4 29,9 3,3 11,9 11,21 0,27 -32,27 -37,27 -32,0 -40,-26 -44,-44 -1,-3 -1,-5 -5,-5 -4,0 -4,3 -4,9l0 40c0,5 0,8 3,8 2,0 3,0 8,-6 2,-2 5,-6 7,-8 13,13 27,14 35,14 39,0 53,-22 53,-44 0,-14 -6,-22 -13,-30 -11,-10 -23,-12 -46,-17 -8,-1 -31,-5 -31,-23 0,-11 7,-24 36,-24 34,0 36,26 37,34 0,4 0,6 4,6 5,0 5,-2 5,-8l0 -31z"/>
  <line class="fil4 str0" x1="2893" y1="3113" x2="4818" y2= "1481" />
  <path class="fil0" d="M2797 3195c33,-19 93,-43 141,-51l-68 -81c-16,46 -49,102 -73,132z"/>
  <path class="fil0" d="M3665 1999l-180 0 -3 50 9 0c1,-8 1,-20 4,-24 2,-3 21,-3 24,-3l111 0c1,0 22,0 24,2 3,4 4,17 5,25l8 0 -2 -50zm-182 215l184 0 2 -54 -8 0c-1,8 -1,22 -4,28 -2,3 -19,3 -26,3l-112 0c-3,0 -24,0 -26,-3 -3,-5 -4,-18 -4,-28l-9 0 3 54zm38 -123l0 -16 -9 0 0 54 9 0 0 -16 108 0 0 16 9 0 0 -54 -9 0 0 16 -108 0z"/>
  <line class="fil4 str0" x1="4758" y1="5666" x2="2771" y2= "3667" />
  <path class="fil0" d="M4847 5756c-21,-32 -49,-90 -61,-137l-75 74c47,13 105,41 136,63z"/>
  <path class="fil0" d="M3607 4565c-9,9 -16,15 -26,15 -7,0 -13,-3 -23,-8 -4,-3 -11,-7 -19,-7 -12,0 -18,7 -35,25l6 6c9,-9 16,-15 26,-15 7,0 13,3 22,8 5,3 12,7 19,7 12,0 18,-7 35,-25l-5 -6z"/>
  <path class="fil0" d="M3544 4805c-44,-10 -45,-63 -45,-79 0,-5 0,-22 -7,-33 -7,-12 -16,-12 -22,-12l-11 0c-5,0 -9,0 -9,4 0,4 3,4 6,4 16,3 17,30 17,43 0,8 2,33 15,51 13,19 32,28 56,31l0 18c0,11 -1,15 -30,15l-10 0 0 10c11,-1 41,-1 53,-1 13,0 43,0 54,1l0 -10 -10 0c-29,0 -30,-4 -30,-15l0 -18c63,-7 72,-56 73,-90 0,-5 0,-32 18,-35 1,0 4,0 4,-4 0,-4 -3,-4 -8,-4l-11 0c-16,0 -30,7 -30,49 0,31 -9,67 -46,75l0 -139c0,-12 1,-15 30,-15l10 0 0 -10c-11,1 -41,1 -54,1 -12,0 -42,0 -53,-1l0 10 10 0c29,0 30,3 30,15l0 139z"/>
  <line class="fil4 str1" x1="5106" y1="1481" x2="5095" y2= "5591" />
  <path class="fil1" d="M5095 5717c7,-37 28,-98 53,-140l-106 0c25,42 46,103 53,140z"/>
  <path class="fil1" d="M5354 3516c0,-11 1,-15 30,-15l10 0 0 -10c-11,1 -41,1 -53,1 -13,0 -43,0 -54,-1l0 10 10 0c29,0 30,4 30,15l0 18c-53,5 -85,35 -85,65 0,31 33,60 85,65l0 18c0,12 -1,15 -30,15l-10 0 0 10c11,-1 41,-1 54,-1 12,0 42,0 53,1l0 -10 -10 0c-29,0 -30,-3 -30,-15l0 -18c51,-3 87,-33 87,-65 0,-32 -37,-61 -87,-65l0 -18zm-27 140c-34,-4 -53,-23 -53,-57 0,-31 16,-52 53,-57l0 114zm27 -114c30,3 55,18 55,57 0,36 -21,54 -55,58l0 -115z"/>
  <path class="fil4 str1" d="M7218 1114c-596,-287 -1093,-310 -1683,-73"/>
  <path class="fil1" d="M5418 1091c38,-8 102,-12 150,-6l-41 -97c-29,39 -77,82 -109,103z"/>
  <line class="fil4 str1" x1="7481" y1="1481" x2="7481" y2= "5577" />
  <path class="fil1" d="M7481 5703c7,-37 28,-98 52,-140l-105 0c25,42 46,103 53,140z"/>
  <path class="fil1" d="M7616 3844c-1,5 -1,5 -1,6 0,5 4,9 10,9 8,0 12,-6 13,-7 1,-3 13,-50 22,-88 7,14 18,23 35,23 41,0 86,-49 86,-101 0,-38 -23,-58 -49,-58 -34,0 -71,35 -81,78l-35 138zm78 -64c-24,0 -30,-28 -30,-32 0,-1 2,-8 3,-13 10,-39 13,-52 21,-66 15,-25 33,-33 44,-33 13,0 24,10 24,34 0,20 -10,59 -20,76 -11,22 -28,34 -42,34z"/>
  <path class="fil1" d="M7622 5907c0,-1 -1,-4 -4,-4 -1,0 -1,0 -5,4l-25 27c-3,-5 -19,-31 -58,-31 -79,0 -158,78 -158,159 0,56 39,97 96,97 16,0 32,-4 44,-9 18,-7 25,-14 31,-21 3,9 12,22 16,22 1,0 2,-2 2,-2 1,-1 4,-14 6,-21l7 -27c1,-6 3,-12 4,-18 4,-16 5,-17 25,-17 1,0 5,-1 5,-7 0,-3 -2,-4 -4,-4 -8,0 -29,1 -37,1 -11,0 -39,-1 -49,-1 -4,0 -8,0 -8,7 0,4 3,4 11,4 0,0 10,0 18,1 9,1 11,2 11,6 0,3 -4,19 -7,32 -10,39 -56,43 -68,43 -34,0 -71,-20 -71,-74 0,-11 4,-69 41,-115 19,-24 53,-45 88,-45 35,0 56,27 56,68 0,14 -1,14 -1,18 0,3 4,3 5,3 5,0 5,0 7,-7l22 -89zm141 31c3,-12 4,-16 37,-16 10,0 13,0 13,-7 0,-4 -4,-4 -6,-4 -11,0 -40,1 -52,1 -10,0 -36,-1 -46,-1 -3,0 -7,0 -7,7 0,4 3,4 10,4 1,0 7,0 13,0 7,1 10,1 10,6 0,1 -1,3 -2,7l-47 188c-3,14 -4,17 -32,17 -6,0 -9,0 -9,7 0,4 3,4 9,4l163 0c8,0 9,0 11,-6l28 -76c1,-4 1,-5 1,-5 0,-1 -1,-4 -4,-4 -3,0 -4,2 -6,8 -12,32 -28,72 -88,72l-33 0c-5,0 -6,0 -8,0 -4,-1 -5,-1 -5,-4 0,-1 0,-2 2,-8l48 -190z"/>
  <path class="fil1" d="M7987 6235c0,-1 0,-2 -6,-7 -44,-45 -55,-111 -55,-165 0,-61 13,-122 56,-166 5,-4 5,-5 5,-6 0,-3 -2,-4 -4,-4 -3,0 -35,24 -56,69 -18,38 -22,77 -22,107 0,27 4,70 23,110 21,43 52,66 55,66 2,0 4,-1 4,-4z"/>
  <path class="fil1" d="M8197 5833l-5 -6c0,1 -14,17 -29,17 -8,0 -17,-5 -23,-9 -10,-5 -16,-8 -22,-8 -13,0 -20,8 -38,28l6 5c0,0 13,-17 29,-17 8,0 17,5 23,9 9,5 15,8 21,8 14,0 20,-8 38,-27z"/>
  <path class="fil1" d="M8102 6121c5,-44 5,-75 5,-80 0,-25 0,-130 -64,-130 -12,0 -24,10 -24,15 0,2 2,2 7,2 51,5 55,85 55,125 0,36 -4,78 -9,101 0,5 0,5 0,7 0,1 0,6 2,6 4,0 89,-65 134,-133 18,-28 31,-59 31,-82 0,-30 -20,-41 -34,-41 -10,0 -15,22 -15,27 0,5 2,5 6,5 23,3 28,22 28,30 0,29 -62,101 -122,148z"/>
  <path class="fil1" d="M8353 6063c0,-27 -4,-70 -23,-110 -21,-43 -52,-66 -55,-66 -2,0 -4,2 -4,4 0,1 0,2 7,8 34,35 54,91 54,164 0,60 -13,122 -56,166 -5,4 -5,5 -5,6 0,2 2,4 4,4 3,0 35,-24 56,-69 18,-38 22,-77 22,-107z"/>
  <path class="fil4 str1" d="M7231 5703c-668,-253 -1206,-224 -1824,104"/>
  <path class="fil1" d="M5296 5868c36,-12 100,-23 149,-21l-51 -93c-25,42 -68,90 -98,114z"/>
  <path class="fil4 str2" d="M2616 3667c405,1123 1026,1773 2113,2201"/>
  <path class="fil0" d="M4847 5913c-32,-20 -81,-62 -112,-100l-38 99c49,-8 113,-6 150,1z"/>
  <path class="fil0" d="M3042 5105c-44,-10 -45,-63 -45,-80 0,-5 0,-21 -6,-32 -7,-12 -17,-12 -23,-12l-11 0c-5,0 -9,0 -9,4 0,3 3,3 6,4 17,2 17,30 17,43 0,8 2,32 15,50 13,20 32,29 56,32l0 17c0,12 -1,16 -30,16l-10 0 0 9c11,-1 41,-1 53,-1 13,0 43,0 54,1l0 -9 -10 0c-29,0 -30,-4 -30,-16l0 -17c63,-8 72,-56 73,-91 0,-4 0,-32 18,-34 1,-1 4,-1 4,-4 0,-4 -3,-4 -8,-4l-11 0c-16,0 -30,7 -30,49 0,30 -9,67 -46,75l0 -139c0,-12 1,-16 30,-16l10 0 0 -10c-11,1 -41,1 -54,1 -12,0 -42,0 -53,-1l0 10 10 0c29,0 30,4 30,16l0 139z"/>
  <path class="fil0" d="M3259 5058c0,-7 -1,-7 -7,-7 -14,14 -36,14 -44,14l0 8c6,0 20,0 33,-6l0 107c0,7 0,9 -22,9l-9 0 0 9c11,-1 28,-1 40,-1 11,0 28,0 39,1l0 -9 -9 0c-21,0 -21,-2 -21,-9l0 -116z"/>
  <path class="fil4 str2" d="M2484 3667c-224,1247 990,2517 2238,2396"/>
  <path class="fil0" d="M4847 6046c-38,-2 -101,-15 -146,-34l14 104c39,-30 96,-58 132,-70z"/>
  <path class="fil0" d="M2683 5462c-44,-10 -44,-63 -44,-79 0,-5 -1,-22 -7,-33 -7,-12 -17,-12 -23,-12l-11 0c-5,0 -9,0 -9,5 0,3 3,3 6,3 17,3 17,30 17,43 0,9 3,33 15,51 14,19 32,28 56,31l0 18c0,11 -1,15 -30,15l-10 0 0 10c11,-1 41,-1 54,-1 12,0 42,0 53,1l0 -10 -10 0c-29,0 -30,-4 -30,-15l0 -18c63,-7 73,-55 73,-90 0,-5 0,-32 18,-35 2,0 5,0 5,-3 0,-5 -4,-5 -9,-5l-11 0c-15,0 -29,7 -30,49 0,31 -9,67 -46,75l0 -139c0,-11 1,-15 30,-15l10 0 0 -10c-11,1 -41,1 -53,1 -13,0 -43,0 -54,-1l0 10 10 0c29,0 30,4 30,15l0 139z"/>
  <path class="fil0" d="M2886 5479c18,0 30,12 30,34 0,23 -14,33 -29,33 -6,0 -28,-1 -37,-14 8,0 11,-6 11,-12 0,-7 -5,-12 -12,-12 -5,0 -12,4 -12,13 0,21 24,33 50,33 32,0 52,-21 52,-41 0,-16 -11,-32 -36,-38 16,-6 30,-19 30,-37 0,-16 -20,-29 -45,-29 -25,0 -44,11 -44,29 0,9 7,11 11,11 6,0 12,-4 12,-11 0,-7 -5,-10 -11,-11 10,-11 29,-11 31,-11 11,0 24,5 24,22 0,12 -6,32 -27,33 -4,1 -10,1 -12,1 -2,0 -4,1 -4,4 0,3 2,3 6,3l12 0z"/>
  <path class="fil4 str2" d="M2797 3521c1102,402 1733,1009 2149,2078"/>
  <path class="fil0" d="M4991 5717c-7,-37 -9,-102 -1,-150l-98 37c38,31 79,81 99,113z"/>
  <path class="fil0" d="M4103 4086c-45,-10 -45,-63 -45,-80 0,-5 -1,-21 -7,-33 -7,-11 -17,-11 -23,-11l-11 0c-5,0 -8,0 -8,4 0,3 3,3 6,4 16,2 16,30 16,42 0,9 3,33 15,51 14,20 33,28 57,32l0 17c0,12 -2,15 -30,15l-11 0 0 10c12,-1 41,-1 54,-1 13,0 42,0 53,1l0 -10 -10 0c-29,0 -30,-3 -30,-15l0 -17c64,-8 73,-56 73,-91 0,-4 1,-32 18,-34 2,-1 5,-1 5,-4 0,-4 -3,-4 -8,-4l-12 0c-15,0 -29,6 -29,49 -1,30 -10,67 -47,75l0 -140c0,-11 1,-15 30,-15l10 0 0 -10c-11,1 -40,1 -53,1 -13,0 -42,0 -54,-1l0 10 11 0c28,0 30,4 30,15l0 140z"/>
  <path class="fil0" d="M4357 4133l-8 0c0,3 -2,17 -6,19 -1,1 -18,1 -21,1l-39 0 27 -22c7,-5 25,-19 32,-25 6,-6 15,-17 15,-32 0,-26 -24,-42 -52,-42 -27,0 -46,18 -46,38 0,11 9,12 11,12 5,0 11,-4 11,-11 0,-5 -2,-12 -12,-12 5,-11 18,-19 33,-19 22,0 34,17 34,34 0,15 -10,30 -25,44l-50 46c-2,2 -2,2 -2,8l91 0 7 -39z"/>
  <polygon class="fil4 str3" points="4383,3793 4383,3793 4383,3793 "/>
 </g>
</svg>
