<?xml version="1.0" encoding="UTF-8"?>
<!DOCTYPE svg PUBLIC "-//W3C//DTD SVG 1.1//EN" "http://www.w3.org/Graphics/SVG/1.1/DTD/svg11.dtd">
<!-- Creator: CorelDRAW X8 -->
<svg xmlns="http://www.w3.org/2000/svg" xml:space="preserve" width="210mm" height="297mm" version="1.1" style="shape-rendering:geometricPrecision; text-rendering:geometricPrecision; image-rendering:optimizeQuality; fill-rule:evenodd; clip-rule:evenodd"
viewBox="0 0 21000 29700"
 xmlns:xlink="http://www.w3.org/1999/xlink">
 <defs>
  <style type="text/css">
   <![CDATA[
    .str1 {stroke:red;stroke-width:14.06}
    .str0 {stroke:black;stroke-width:14.06}
    .str3 {stroke:white;stroke-width:7.62}
    .str2 {stroke:black;stroke-width:14.06;stroke-dasharray:84.660000 84.660000}
    .fil4 {fill:none;fill-rule:nonzero}
    .fil2 {fill:blue;fill-rule:nonzero}
    .fil3 {fill:green;fill-rule:nonzero}
    .fil1 {fill:red;fill-rule:nonzero}
    .fil0 {fill:black;fill-rule:nonzero}
   ]]>
  </style>
 </defs>
 <g id="Layer_x0020_1">
  <metadata id="CorelCorpID_0Corel-Layer"/>
  <path class="fil0" d="M6602 13874c0,-102 -45,-180 -143,-180 -83,0 -154,68 -160,73 -64,63 -88,136 -88,137 0,5 4,6 8,6 15,0 28,-8 40,-17 14,-10 15,-13 24,-31 7,-16 26,-56 56,-89 19,-22 35,-34 67,-34 78,0 128,64 128,170 0,164 -117,326 -265,326 -115,0 -178,-91 -178,-206 0,-109 57,-230 174,-299 8,-5 32,-19 32,-30 0,-6 -6,-6 -8,-6 -28,0 -266,128 -266,370 0,112 59,215 192,215 157,0 387,-157 387,-405z"/>
  <path class="fil0" d="M11975 9154c11,-66 18,-134 18,-202 0,-23 0,-114 -27,-172 -32,-63 -75,-72 -102,-72 -27,0 -55,23 -55,34 0,5 4,5 14,6 35,3 69,20 91,86 17,50 19,111 19,146 0,122 -28,262 -33,280 -2,11 -3,14 -3,21 0,3 0,13 6,13 4,0 5,-1 18,-16 89,-106 178,-229 266,-382 31,-55 52,-97 55,-103 25,75 52,186 67,317 5,43 9,92 10,135 0,3 1,40 1,42 0,4 3,7 5,7 4,0 5,-1 18,-15 100,-112 272,-346 272,-486 0,-64 -35,-85 -60,-85 -21,0 -33,49 -33,61 0,11 4,12 9,13 12,2 49,7 49,60 0,92 -197,340 -202,340 -1,0 -1,-1 -2,-19 -9,-173 -56,-358 -89,-446 -2,-6 -3,-9 -11,-9 -15,0 -50,20 -50,35 0,3 4,10 5,14 -49,93 -121,229 -255,397l-1 0z"/>
  <path class="fil0" d="M12339 19537l-12 -12c0,1 -31,39 -66,39 -19,0 -39,-12 -53,-20 -21,-13 -36,-19 -50,-19 -30,0 -45,18 -86,63l12 12c0,-1 31,-38 66,-38 19,0 39,12 53,20 21,13 36,18 50,18 30,0 45,-18 86,-63z"/>
  <path class="fil0" d="M12121 20197c12,-99 12,-171 12,-183 0,-57 0,-297 -146,-297 -28,0 -56,22 -56,34 0,5 4,5 16,6 117,10 127,195 127,286 0,81 -11,177 -20,231 -2,10 -2,12 -2,15 0,4 0,14 6,14 8,0 203,-149 305,-305 41,-62 72,-134 72,-188 0,-68 -45,-93 -78,-93 -23,0 -35,50 -35,61 0,12 4,12 14,13 54,6 64,49 64,68 0,65 -140,230 -279,338z"/>
  <path class="fil1" d="M17944 8698c0,-2 -2,-8 -9,-8 -2,0 -3,1 -12,10l-56 62c-8,-11 -45,-72 -134,-72 -179,0 -360,178 -360,365 0,128 89,220 219,220 36,0 72,-7 101,-19 40,-16 55,-33 70,-49 7,20 28,50 36,50 4,0 6,-3 6,-3 1,-2 9,-33 13,-49l16 -62c3,-14 7,-28 10,-41 9,-37 10,-38 56,-39 4,0 13,-1 13,-16 0,-6 -5,-9 -11,-9 -18,0 -66,2 -84,2 -25,0 -88,-2 -113,-2 -7,0 -17,0 -17,16 0,9 6,9 24,9 1,0 24,0 43,2 21,2 25,4 25,15 0,7 -9,43 -17,73 -23,89 -127,97 -155,97 -78,0 -162,-45 -162,-169 0,-25 8,-157 92,-262 44,-55 122,-104 202,-104 82,0 129,62 129,156 0,32 -2,33 -2,41 0,8 9,8 12,8 10,0 10,-2 14,-16l51 -206z"/>
  <path class="fil2" d="M2011 12792l1 1 0 412c0,27 -1,35 -57,35l-17 0 0 23c44,-3 92,-3 103,-3 4,0 58,0 104,3l0 -23 -17 0c-56,0 -57,-8 -57,-35l0 -380c0,-27 1,-35 57,-35l17 0 0 -22 -122 0c-15,0 -20,0 -25,13l-163 411 -162 -408c-6,-15 -6,-16 -26,-16l-122 0 0 22 17 0c56,0 57,8 57,35l0 361c0,19 0,54 -74,54l0 23c40,-2 50,-3 86,-3 35,0 46,1 85,3l0 -23c-74,0 -74,-35 -74,-54l0 -388 1 0 178 449c3,9 6,16 15,16 8,0 11,-7 14,-13l181 -458zm455 305c15,0 19,0 19,-16 0,-74 -40,-143 -133,-143 -87,0 -155,75 -155,165 0,95 76,168 164,168 89,0 124,-78 124,-95 0,-5 -4,-9 -10,-9 -7,0 -9,5 -10,8 -25,74 -89,75 -100,75 -35,0 -65,-19 -81,-44 -24,-35 -25,-79 -25,-109l207 0zm-206 -18c6,-111 72,-123 92,-123 40,0 83,31 84,123l-176 0zm495 131c3,31 24,57 55,57 18,0 64,-11 64,-69l0 -40 -20 0 0 39c0,8 0,45 -26,45 -26,0 -26,-35 -26,-47l0 -127c0,-41 0,-65 -33,-95 -27,-24 -62,-35 -98,-35 -61,0 -111,31 -111,77 0,22 15,35 34,35 19,0 33,-15 33,-34 0,-31 -32,-34 -33,-34 20,-19 55,-26 76,-26 37,0 78,28 78,91l0 24c-39,2 -93,5 -142,29 -52,25 -68,63 -68,92 0,59 70,79 119,79 60,0 87,-40 98,-61zm-7 -50c0,71 -54,92 -86,92 -34,0 -66,-24 -66,-60 0,-48 41,-99 152,-103l0 71zm380 -203c0,-12 0,-19 -9,-19 -4,0 -5,0 -15,9 -1,1 -8,8 -12,11 -22,-16 -45,-20 -69,-20 -96,0 -120,53 -120,90 0,23 10,42 27,58 24,22 52,27 89,34 37,7 49,9 65,22 7,5 25,19 25,47 0,63 -73,63 -83,63 -74,0 -93,-61 -101,-100 -2,-8 -3,-12 -12,-12 -10,0 -10,6 -10,19l0 93c0,12 0,19 9,19 4,0 5,-1 18,-15 3,-4 11,-14 14,-17 31,29 64,32 82,32 89,0 120,-53 120,-101 0,-33 -14,-52 -30,-69 -25,-24 -51,-29 -104,-39 -19,-4 -72,-13 -72,-54 0,-24 17,-54 83,-54 78,0 83,60 84,78 1,9 1,13 10,13 11,0 11,-5 11,-19l0 -69zm330 185c0,64 -36,110 -88,110 -60,0 -64,-31 -64,-70l0 -240 -109 8 0 23c56,0 56,2 56,66l0 109c0,47 0,78 33,103 21,14 51,20 80,20 37,0 73,-17 94,-61l1 0 0 61 107 -8 0 -23c-49,0 -56,-5 -56,-40l0 -258 -109 8 0 23c49,0 55,5 55,40l0 129zm255 -45c0,-30 8,-136 91,-136l0 0c-1,1 -13,10 -13,27 0,20 15,32 32,32 15,0 32,-11 32,-33 0,-23 -22,-45 -55,-45 -43,0 -74,31 -90,76l-1 0 0 -76 -103 8 0 23c49,0 56,5 56,40l0 194c0,33 -8,33 -56,33l0 23c39,-2 48,-3 85,-3 29,0 46,1 92,3l0 -23 -15 0c-52,0 -55,-8 -55,-35l0 -108zm410 113c4,31 25,57 56,57 18,0 64,-11 64,-69l0 -40 -20 0 0 39c0,8 0,45 -26,45 -27,0 -27,-35 -27,-47l0 -127c0,-41 0,-65 -32,-95 -27,-24 -62,-35 -98,-35 -61,0 -111,31 -111,77 0,22 15,35 34,35 19,0 33,-15 33,-34 0,-31 -32,-34 -33,-34 20,-19 55,-26 76,-26 37,0 78,28 78,91l0 24c-39,2 -94,5 -142,29 -52,25 -68,63 -68,92 0,59 70,79 119,79 60,0 87,-40 97,-61zm-6 -50c0,71 -54,92 -86,92 -34,0 -66,-24 -66,-60 0,-48 41,-99 152,-103l0 71zm261 -128c0,-14 0,-15 8,-27 25,-33 60,-44 88,-44 31,0 60,17 79,47 19,31 20,74 20,97 0,34 -4,73 -23,102 -16,23 -46,45 -84,45 -33,0 -60,-17 -78,-44 -10,-15 -10,-16 -10,-29l0 -147zm-6 186c22,32 58,53 98,53 86,0 165,-70 165,-165 0,-90 -71,-164 -158,-164 -49,0 -83,26 -101,45l0 -227 -107 8 0 22c49,0 56,5 56,41l0 432 20 0 27 -45zm421 -458l-107 8 0 22c49,0 56,5 56,41l0 376c0,33 -8,33 -56,33l0 23c34,-2 48,-3 81,-3 34,0 47,1 82,3l0 -23c-48,0 -56,0 -56,-33l0 -447zm363 337c16,0 20,0 20,-16 0,-74 -41,-143 -134,-143 -86,0 -155,75 -155,165 0,95 76,168 165,168 88,0 124,-78 124,-95 0,-5 -4,-9 -10,-9 -8,0 -10,5 -11,8 -24,74 -89,75 -100,75 -34,0 -64,-19 -81,-44 -24,-35 -24,-79 -24,-109l206 0zm-206 -18c7,-111 72,-123 92,-123 40,0 84,31 84,123l-176 0z"/>
  <path class="fil2" d="M1698 13993c0,-94 -75,-170 -164,-170 -92,0 -165,78 -165,170 0,91 75,163 164,163 92,0 165,-73 165,-163zm-164 142c-37,0 -67,-18 -84,-46 -18,-30 -19,-69 -19,-102 0,-27 0,-68 18,-98 22,-37 58,-48 84,-48 41,0 71,24 85,48 17,31 18,68 18,98 0,27 0,69 -18,101 -21,33 -54,47 -84,47zm316 -218c0,-14 0,-15 8,-26 25,-34 60,-45 88,-45 31,0 60,17 79,48 19,31 20,73 20,97 0,34 -4,72 -23,101 -16,23 -46,46 -84,46 -33,0 -60,-18 -78,-45 -10,-15 -10,-16 -10,-29l0 -147zm-6 187c22,31 58,52 97,52 87,0 166,-70 166,-165 0,-90 -71,-163 -158,-163 -50,0 -84,25 -101,45l0 -228 -107 8 0 23c49,0 56,5 56,40l0 432 20 0 27 -44zm537 -262c0,-12 0,-19 -9,-19 -3,0 -5,0 -14,9 -2,1 -8,8 -12,12 -23,-16 -45,-21 -70,-21 -96,0 -119,53 -119,90 0,23 10,42 26,58 25,22 52,28 89,34 37,7 50,9 66,22 7,6 25,19 25,47 0,64 -73,64 -83,64 -74,0 -93,-62 -102,-101 -2,-7 -3,-12 -11,-12 -10,0 -10,6 -10,19l0 93c0,12 0,19 8,19 5,0 5,-1 18,-15 3,-4 11,-14 15,-17 30,30 64,32 82,32 89,0 120,-52 120,-101 0,-33 -15,-52 -31,-69 -24,-24 -50,-29 -104,-39 -19,-4 -72,-13 -72,-54 0,-23 17,-54 83,-54 78,0 83,60 85,78 1,9 1,13 10,13 10,0 10,-5 10,-18l0 -70zm334 140c16,0 20,0 20,-15 0,-75 -41,-144 -134,-144 -87,0 -155,76 -155,165 0,95 76,168 165,168 88,0 124,-78 124,-94 0,-6 -4,-10 -11,-10 -7,0 -9,5 -10,8 -24,74 -89,75 -100,75 -34,0 -64,-19 -81,-44 -24,-35 -24,-79 -24,-109l206 0zm-206 -18c7,-111 72,-123 92,-123 40,0 84,31 84,123l-176 0zm376 18c0,-30 8,-136 91,-136l0 0c-2,1 -13,10 -13,27 0,20 15,32 32,32 15,0 31,-11 31,-32 0,-24 -21,-45 -54,-45 -43,0 -74,30 -90,75l-1 0 0 -75 -103 8 0 22c49,0 56,5 56,41l0 193c0,33 -8,33 -56,33l0 23c38,-2 48,-2 85,-2 29,0 46,0 92,2l0 -23 -15 0c-53,0 -55,-8 -55,-34l0 -109zm293 -91c-2,-5 -4,-9 -4,-14 0,-19 26,-19 40,-19l0 -22c-31,1 -48,2 -80,2 -25,0 -46,0 -72,-2l0 22c34,0 48,0 59,27l105 257c5,12 10,14 17,14 6,0 12,-2 17,-14l99 -238c15,-37 40,-45 66,-46l0 -22c-22,2 -55,2 -56,2 -20,0 -43,-1 -63,-2l0 22c21,1 33,12 33,31 0,7 0,9 -3,17l-76 182 -82 -197zm468 205c4,30 25,56 56,56 18,0 64,-11 64,-69l0 -40 -20 0 0 40c0,8 0,44 -27,44 -26,0 -26,-35 -26,-47l0 -126c0,-42 0,-66 -32,-96 -27,-24 -62,-35 -98,-35 -61,0 -111,31 -111,77 0,22 15,35 34,35 19,0 33,-15 33,-34 0,-31 -32,-34 -33,-34 20,-19 55,-26 76,-26 37,0 78,28 78,92l0 24c-39,1 -94,5 -142,28 -52,25 -68,63 -68,92 0,59 70,79 119,79 60,0 87,-40 97,-60zm-6 -50c0,70 -55,92 -86,92 -34,0 -66,-25 -66,-61 0,-48 41,-99 152,-103l0 72zm366 -188l0 -22 -105 0 0 -134 -21 0c0,61 -26,136 -96,138l0 18 63 0 0 200c0,81 59,98 97,98 49,0 74,-47 74,-98l0 -41 -20 0 0 39c0,53 -23,79 -49,79 -48,0 -48,-63 -48,-76l0 -201 105 0zm186 -30l-104 8 0 22c46,0 53,4 53,40l0 194c0,33 -8,33 -56,33l0 23c33,-2 48,-2 80,-2 11,0 42,0 77,2l0 -23c-47,0 -50,-3 -50,-32l0 -265zm3 -126c0,-22 -18,-40 -40,-40 -22,0 -39,19 -39,40 0,21 17,39 39,39 22,0 40,-18 40,-39zm421 291c0,-94 -75,-170 -164,-170 -92,0 -165,78 -165,170 0,91 75,163 164,163 92,0 165,-73 165,-163zm-164 142c-37,0 -67,-18 -84,-46 -18,-30 -19,-69 -19,-102 0,-27 0,-68 18,-98 22,-37 58,-48 84,-48 41,0 71,24 85,48 17,31 18,68 18,98 0,27 0,69 -18,101 -21,33 -54,47 -84,47zm320 -175c0,-77 54,-114 100,-114 42,0 52,35 52,79l0 167c0,33 -8,33 -56,33l0 23c34,-2 48,-2 83,-2 34,0 44,0 82,2l0 -23c-37,0 -55,0 -56,-22l0 -139c0,-60 0,-81 -20,-107 -16,-20 -44,-29 -80,-29 -68,0 -99,50 -109,70l-1 0 0 -70 -105 8 0 22c50,0 56,5 56,41l0 193c0,33 -8,33 -56,33l0 23c34,-2 48,-2 83,-2 35,0 44,0 83,2l0 -23c-48,0 -56,0 -56,-33l0 -132zm527 -118c0,-12 0,-19 -9,-19 -3,0 -5,0 -14,9 -2,1 -8,8 -12,12 -23,-16 -45,-21 -70,-21 -96,0 -119,53 -119,90 0,23 10,42 26,58 25,22 52,28 89,34 37,7 50,9 66,22 7,6 25,19 25,47 0,64 -73,64 -83,64 -74,0 -93,-62 -102,-101 -2,-7 -3,-12 -11,-12 -10,0 -10,6 -10,19l0 93c0,12 0,19 8,19 5,0 5,-1 18,-15 3,-4 11,-14 15,-17 30,30 64,32 82,32 89,0 120,-52 120,-101 0,-33 -15,-52 -31,-69 -24,-24 -50,-29 -104,-39 -19,-4 -72,-13 -72,-54 0,-23 17,-54 83,-54 78,0 83,60 85,78 0,9 0,13 10,13 10,0 10,-5 10,-18l0 -70z"/>
  <path class="fil3" d="M2788 15205c0,-3 -2,-6 -6,-11 -94,-85 -122,-215 -122,-342 0,-112 22,-249 124,-346 3,-3 4,-5 4,-8 0,-5 -3,-8 -8,-8 -9,0 -74,52 -113,131 -35,69 -52,144 -52,230 0,52 6,135 46,220 43,89 110,142 119,142 5,0 8,-3 8,-8zm207 -475c-58,-14 -77,-61 -77,-93 0,-48 39,-94 100,-94 93,0 131,69 141,142 2,14 3,18 12,18 10,0 10,-5 10,-21l0 -139c0,-15 0,-21 -9,-21 -5,0 -6,1 -11,10 -9,13 -2,3 -26,41 -12,-14 -50,-51 -118,-51 -84,0 -145,66 -145,140 0,57 34,91 37,95 33,32 46,35 132,56 59,14 65,15 89,40 1,0 26,27 26,70 0,49 -36,103 -102,103 -56,0 -156,-23 -162,-142 -1,-11 -1,-15 -10,-15 -10,0 -10,5 -10,20l0 140c0,14 0,20 8,20 5,0 6,-1 11,-10 10,-13 2,-3 26,-41 45,44 102,51 138,51 88,0 147,-73 147,-150 0,-41 -15,-73 -33,-95 -31,-40 -63,-48 -110,-59l-64 -15zm538 137c16,0 20,0 20,-15 0,-75 -41,-144 -134,-144 -87,0 -155,76 -155,166 0,94 76,167 165,167 88,0 124,-78 124,-94 0,-5 -4,-10 -11,-10 -7,0 -9,5 -10,8 -24,74 -89,76 -100,76 -34,0 -64,-20 -81,-45 -24,-35 -24,-79 -24,-109l206 0zm-206 -17c7,-112 72,-123 92,-123 40,0 84,30 84,123l-176 0zm483 -107l0 -22 -105 0 0 -133 -21 0c0,60 -26,135 -96,137l0 18 63 0 0 200c0,81 59,98 97,98 49,0 74,-46 74,-98l0 -41 -20 0 0 39c0,54 -23,80 -49,80 -48,0 -48,-64 -48,-77l0 -201 105 0zm269 108c0,-59 -9,-139 -46,-219 -43,-89 -110,-142 -119,-142 -7,0 -9,6 -9,8 0,3 2,5 7,11 42,37 121,136 121,342 0,104 -18,248 -123,346 -2,2 -5,5 -5,8 0,2 2,8 9,8 9,0 74,-52 113,-131 35,-69 52,-144 52,-231z"/>
  <path class="fil2" d="M10850 7219l-119 -356c-1,-3 -3,-8 -3,-11 0,-22 41,-22 61,-22l0 -23c-33,2 -69,2 -101,2 -40,0 -45,0 -90,-2l0 23c37,0 50,1 58,13 7,10 21,58 21,59 0,1 -2,8 -2,10l-103 307 -118 -354c-3,-9 -3,-11 -3,-13 0,-22 41,-22 61,-22l0 -23c-33,2 -69,2 -102,2 -40,0 -45,0 -90,-2l0 23c42,0 56,0 66,27l148 446c4,10 7,15 16,15 6,0 12,-2 16,-15l122 -369 123 366c5,13 6,18 16,18 9,0 13,-5 16,-15l141 -422c11,-32 30,-51 73,-51l0 -23c-22,2 -46,2 -68,2 -23,0 -44,0 -86,-2l0 23c46,0 63,22 63,39 0,3 -2,6 -3,11l-113 339zm510 -71c0,-95 -76,-171 -165,-171 -92,0 -165,78 -165,171 0,90 75,162 165,162 92,0 165,-73 165,-162zm-165 142c-36,0 -66,-19 -83,-47 -19,-30 -20,-69 -20,-102 0,-27 0,-68 19,-98 21,-37 57,-47 84,-47 41,0 71,23 85,47 17,31 17,68 17,98 0,27 0,69 -18,101 -20,33 -53,48 -84,48zm315 -154c0,-30 8,-136 90,-136l0 1c-1,0 -13,9 -13,26 0,20 15,32 32,32 15,0 32,-11 32,-32 0,-23 -22,-45 -54,-45 -44,0 -74,30 -91,75l-1 0 0 -75 -103 8 0 22c50,0 56,5 56,41l0 193c0,33 -8,33 -56,33l0 23c39,-2 48,-2 85,-2 29,0 47,0 92,2l0 -23 -14 0c-53,0 -55,-8 -55,-34l0 -109zm295 -337l-107 8 0 23c49,0 56,5 56,40l0 376c0,33 -8,33 -56,33l0 23c34,-2 48,-2 81,-2 34,0 46,0 82,2l0 -23c-48,0 -56,0 -56,-33l0 -447zm355 416c0,13 0,15 -11,30 -22,33 -56,47 -85,47 -31,0 -60,-18 -79,-48 -18,-31 -20,-74 -20,-97 0,-34 5,-73 23,-101 16,-24 46,-46 84,-46 31,0 60,15 79,43 9,11 9,12 9,26l0 146zm2 -190c-3,-5 -36,-43 -93,-43 -89,0 -166,71 -166,164 0,91 72,164 158,164 53,0 86,-31 99,-46l0 46 109 -8 0 -23c-49,0 -55,-5 -55,-40l0 -440 -108 8 0 23c50,0 56,5 56,40l0 155zm627 -29c0,-12 0,-19 -9,-19 -4,0 -5,0 -15,9 -1,2 -8,8 -12,12 -22,-16 -45,-21 -69,-21 -96,0 -120,53 -120,90 0,23 10,42 27,58 25,23 52,28 89,34 37,7 49,10 65,22 7,6 26,20 26,47 0,64 -74,64 -84,64 -74,0 -92,-62 -101,-101 -2,-7 -3,-12 -12,-12 -10,0 -10,6 -10,19l0 93c0,12 0,19 9,19 4,0 5,-1 18,-15 3,-4 11,-13 14,-17 31,30 64,32 82,32 89,0 120,-52 120,-101 0,-32 -14,-52 -30,-69 -25,-24 -51,-29 -104,-39 -19,-3 -72,-13 -72,-54 0,-23 17,-54 83,-54 78,0 83,60 84,79 1,8 1,13 10,13 11,0 11,-5 11,-19l0 -70zm279 16l0 -22 -105 0 0 -134 -20 0c-1,61 -26,136 -96,138l0 18 63 0 0 200c0,81 58,98 97,98 48,0 74,-46 74,-98l0 -41 -21 0 0 39c0,54 -22,80 -48,80 -49,0 -49,-64 -49,-77l0 -201 105 0zm301 238c4,30 25,56 56,56 18,0 64,-11 64,-69l0 -40 -20 0 0 40c0,8 0,44 -26,44 -26,0 -26,-35 -26,-46l0 -127c0,-41 0,-66 -33,-96 -27,-24 -62,-35 -98,-35 -61,0 -111,31 -111,77 0,23 15,35 34,35 19,0 33,-15 33,-33 0,-31 -32,-35 -33,-35 20,-19 55,-25 76,-25 37,0 78,27 78,91l0 24c-39,1 -93,5 -142,28 -52,25 -68,63 -68,92 0,59 70,79 119,79 60,0 87,-40 97,-60zm-6 -50c0,70 -54,92 -86,92 -34,0 -66,-25 -66,-61 0,-48 41,-99 152,-103l0 72zm366 -188l0 -22 -105 0 0 -134 -21 0c0,61 -26,136 -96,138l0 18 63 0 0 200c0,81 59,98 97,98 49,0 74,-46 74,-98l0 -41 -20 0 0 39c0,54 -23,80 -49,80 -48,0 -48,-64 -48,-77l0 -201 105 0zm343 124c16,0 20,0 20,-15 0,-75 -41,-144 -134,-144 -87,0 -155,76 -155,166 0,94 76,167 165,167 88,0 124,-78 124,-94 0,-5 -4,-10 -11,-10 -7,0 -9,5 -10,8 -24,74 -89,76 -100,76 -34,0 -64,-20 -81,-45 -24,-35 -24,-79 -24,-109l206 0zm-206 -17c7,-112 72,-123 92,-123 40,0 84,30 84,123l-176 0z"/>
  <path class="fil3" d="M11652 8359c0,-3 -2,-5 -6,-10 -94,-86 -122,-216 -122,-343 0,-112 22,-248 124,-346 3,-2 4,-5 4,-8 0,-5 -3,-8 -8,-8 -9,0 -74,52 -113,131 -35,69 -53,144 -53,230 0,52 7,135 47,220 43,89 110,142 119,142 5,0 8,-3 8,-8zm207 -475c-58,-14 -77,-61 -77,-92 0,-49 39,-95 100,-95 93,0 131,69 141,142 2,14 3,18 12,18 10,0 10,-5 10,-21l0 -139c0,-15 0,-21 -9,-21 -5,0 -6,1 -11,10 -9,13 -2,3 -26,41 -12,-14 -50,-51 -118,-51 -85,0 -145,66 -145,140 0,57 34,91 37,95 33,32 46,36 132,56 59,14 65,15 89,40 1,0 25,27 25,70 0,49 -35,103 -101,103 -56,0 -156,-23 -162,-142 -1,-11 -1,-15 -10,-15 -10,0 -10,5 -10,20l0 140c0,14 0,20 8,20 5,0 6,-1 11,-9 10,-14 2,-4 26,-42 45,44 102,51 138,51 88,0 147,-72 147,-150 0,-41 -15,-73 -33,-95 -31,-40 -64,-48 -111,-59l-63 -15zm538 137c16,0 19,0 19,-15 0,-75 -40,-143 -133,-143 -87,0 -155,75 -155,165 0,95 76,167 165,167 88,0 123,-78 123,-94 0,-5 -3,-10 -10,-10 -7,0 -9,5 -10,8 -25,74 -89,76 -100,76 -35,0 -64,-20 -81,-44 -24,-36 -25,-79 -25,-110l207 0zm-206 -17c7,-112 72,-123 92,-123 40,0 83,30 84,123l-176 0zm482 -107l0 -22 -105 0 0 -133 -20 0c-1,60 -26,135 -96,137l0 18 63 0 0 200c0,81 59,98 97,98 48,0 74,-46 74,-98l0 -41 -21 0 0 39c0,54 -22,80 -48,80 -49,0 -49,-64 -49,-77l0 -201 105 0zm270 108c0,-59 -9,-139 -46,-219 -43,-89 -111,-142 -119,-142 -7,0 -9,6 -9,8 0,3 2,6 7,11 42,37 121,136 121,342 0,104 -19,248 -124,346 -1,2 -4,5 -4,8 0,3 2,8 9,8 8,0 74,-52 113,-131 35,-69 52,-144 52,-231z"/>
  <path class="fil2" d="M10193 20606c-4,-10 -6,-16 -18,-16 -11,0 -13,5 -17,16l-156 430c-8,24 -25,50 -81,50l0 23c28,-2 47,-2 74,-2 25,0 41,0 82,2l0 -23c-41,0 -54,-23 -54,-37 0,-6 2,-10 3,-13l34 -94 188 0 39 110c3,7 4,9 4,13 0,21 -41,21 -60,21l0 23c33,-2 70,-2 104,-2 32,0 34,0 95,2l0 -23 -13 0c-45,0 -53,-6 -60,-26l-164 -454zm46 314l-171 0 86 -237 85 237zm306 59c18,12 40,23 74,23 68,0 121,-50 121,-107 0,-35 -21,-60 -30,-70 29,-26 63,-26 72,-26 -4,2 -10,6 -10,19 0,8 5,21 22,21 10,0 22,-7 22,-22 0,-14 -11,-36 -39,-36 -21,0 -54,8 -79,34 -20,-16 -48,-26 -79,-26 -68,0 -121,49 -121,106 0,37 22,63 34,74 -2,2 -22,27 -22,60 0,25 12,51 31,64 -37,12 -66,38 -66,72 0,52 72,93 165,93 89,0 165,-38 165,-94 0,-30 -14,-62 -41,-79 -40,-25 -82,-25 -151,-25 -15,0 -38,0 -44,-2 -21,-4 -34,-24 -34,-47 0,-11 3,-22 10,-32zm74 3c-65,0 -65,-71 -65,-87 0,-19 2,-44 14,-61 11,-15 30,-26 51,-26 65,0 65,71 65,87 0,17 0,87 -65,87zm33 123c23,0 112,1 112,60 0,41 -56,74 -124,74 -71,0 -124,-35 -124,-74 0,-12 7,-60 69,-60l67 0zm463 -162c16,0 20,0 20,-15 0,-75 -41,-144 -133,-144 -87,0 -155,76 -155,166 0,94 76,167 164,167 89,0 124,-78 124,-94 0,-5 -4,-10 -10,-10 -7,0 -10,5 -10,8 -25,74 -89,76 -100,76 -35,0 -65,-20 -81,-45 -24,-35 -25,-79 -25,-109l206 0zm-205 -17c6,-112 71,-123 92,-123 40,0 83,30 84,123l-176 0zm381 -5c0,-76 55,-114 100,-114 43,0 53,35 53,79l0 167c0,33 -8,33 -56,33l0 23c34,-2 48,-2 82,-2 35,0 45,0 83,2l0 -23c-37,0 -55,0 -56,-22l0 -139c0,-60 0,-81 -20,-107 -17,-20 -44,-29 -81,-29 -67,0 -98,50 -108,70l-1 0 0 -70 -105 8 0 22c49,0 56,5 56,41l0 193c0,33 -8,33 -56,33l0 23c34,-2 48,-2 83,-2 34,0 44,0 82,2l0 -23c-48,0 -56,0 -56,-33l0 -132zm493 -102l0 -22 -105 0 0 -134 -20 0c-1,61 -26,136 -97,138l0 18 63 0 0 200c0,81 59,98 97,98 49,0 74,-46 74,-98l0 -41 -20 0 0 39c0,54 -22,80 -49,80 -48,0 -48,-64 -48,-77l0 -201 105 0zm206 -136c0,-46 -19,-77 -50,-77 -25,0 -39,20 -39,39 0,20 14,39 39,39 10,0 19,-2 27,-9 2,-1 2,-2 3,-2 2,0 2,4 2,11 0,48 -22,92 -57,124 -1,2 -4,4 -4,8 0,3 5,8 10,8 7,0 69,-54 69,-141zm303 120c0,-12 0,-19 -9,-19 -3,0 -5,0 -14,9 -2,2 -8,8 -12,12 -23,-16 -45,-21 -70,-21 -96,0 -119,53 -119,90 0,23 10,42 26,58 25,23 53,28 89,34 37,7 50,10 66,22 7,6 25,20 25,47 0,64 -73,64 -83,64 -74,0 -93,-62 -102,-101 -2,-7 -3,-12 -11,-12 -10,0 -10,6 -10,19l0 93c0,12 0,19 8,19 5,0 5,-1 18,-15 3,-4 11,-13 15,-17 30,30 64,32 82,32 89,0 120,-52 120,-101 0,-32 -15,-52 -30,-69 -25,-24 -51,-29 -105,-39 -19,-3 -71,-13 -71,-54 0,-23 16,-54 82,-54 78,0 83,60 85,79 1,8 1,13 10,13 10,0 10,-5 10,-19l0 -70zm426 -197l-107 8 0 23c49,0 56,5 56,40l0 376c0,33 -8,33 -56,33l0 23c34,-2 48,-2 81,-2 34,0 46,0 82,2l0 -23c-48,0 -56,0 -56,-33l0 -447zm321 451c3,30 24,56 56,56 18,0 63,-11 63,-69l0 -40 -20 0 0 40c0,8 0,44 -26,44 -26,0 -26,-35 -26,-46l0 -127c0,-41 0,-66 -33,-96 -27,-24 -61,-35 -97,-35 -61,0 -112,31 -112,77 0,23 15,35 34,35 20,0 33,-15 33,-33 0,-32 -32,-35 -32,-35 19,-19 54,-25 75,-25 37,0 78,27 78,91l0 24c-39,1 -93,5 -142,28 -52,25 -68,63 -68,92 0,59 70,79 119,79 60,0 88,-40 98,-60zm-7 -50c0,70 -54,92 -86,92 -34,0 -66,-25 -66,-61 0,-48 41,-99 152,-103l0 72zm366 -188l0 -22 -105 0 0 -134 -20 0c-1,61 -26,136 -97,138l0 18 63 0 0 200c0,81 59,98 97,98 49,0 74,-46 74,-98l0 -41 -20 0 0 39c0,54 -22,80 -48,80 -49,0 -49,-64 -49,-77l0 -201 105 0zm343 124c16,0 20,0 20,-15 0,-75 -41,-144 -133,-144 -87,0 -155,76 -155,166 0,94 76,167 164,167 88,0 124,-78 124,-94 0,-5 -4,-10 -10,-10 -8,0 -10,5 -10,8 -25,74 -89,76 -100,76 -35,0 -65,-20 -81,-45 -24,-35 -25,-79 -25,-109l206 0zm-205 -17c6,-112 71,-123 92,-123 39,0 83,30 84,123l-176 0zm381 -5c0,-76 55,-114 100,-114 43,0 52,35 52,79l0 167c0,33 -8,33 -55,33l0 23c34,-2 47,-2 82,-2 35,0 44,0 83,2l0 -23c-37,0 -55,0 -56,-22l0 -139c0,-60 0,-81 -20,-107 -17,-20 -44,-29 -81,-29 -67,0 -98,50 -108,70l-1 0 0 -70 -105 8 0 22c49,0 56,5 56,41l0 193c0,33 -8,33 -56,33l0 23c34,-2 48,-2 83,-2 34,0 44,0 82,2l0 -23c-48,0 -56,0 -56,-33l0 -132zm493 -102l0 -22 -105 0 0 -134 -20 0c-1,61 -27,136 -97,138l0 18 63 0 0 200c0,81 59,98 97,98 49,0 74,-46 74,-98l0 -41 -20 0 0 39c0,54 -23,80 -49,80 -48,0 -48,-64 -48,-77l0 -201 105 0z"/>
  <path class="fil2" d="M10003 21828c0,-29 8,-136 90,-136l0 1c-1,0 -13,9 -13,27 0,19 16,31 32,31 16,0 32,-10 32,-32 0,-23 -22,-45 -54,-45 -44,0 -74,30 -91,75l0 0 0 -75 -103 8 0 22c49,0 56,5 56,41l0 193c0,34 -8,34 -56,34l0 22c38,-1 48,-2 84,-2 29,0 47,1 92,2l0 -22 -14 0c-53,0 -55,-8 -55,-35l0 -109zm452 0c16,0 19,0 19,-15 0,-75 -40,-143 -133,-143 -87,0 -155,75 -155,165 0,95 76,167 165,167 88,0 123,-77 123,-94 0,-5 -3,-10 -10,-10 -7,0 -9,6 -10,8 -24,74 -89,76 -100,76 -35,0 -64,-20 -81,-44 -24,-36 -25,-79 -25,-110l207 0zm-206 -17c7,-112 72,-123 92,-123 40,0 83,30 84,123l-176 0zm378 -60c25,-42 65,-57 95,-57 57,0 100,65 100,144 0,82 -49,146 -108,146 -32,0 -60,-19 -77,-44 -10,-15 -10,-16 -10,-30l0 -159zm0 208c19,19 44,43 92,43 86,0 165,-70 165,-164 0,-92 -71,-164 -156,-164 -39,0 -75,16 -103,46l0 -46 -107 8 0 22c51,0 56,5 56,36l0 339c0,33 -8,33 -56,33l0 23c34,-2 48,-3 82,-3 35,0 45,1 83,3l0 -23c-48,0 -56,0 -56,-33l0 -120zm411 -131c0,-29 8,-136 90,-136l0 1c-1,0 -13,9 -13,27 0,19 16,31 32,31 15,0 32,-10 32,-32 0,-23 -22,-45 -54,-45 -44,0 -74,30 -91,75l0 0 0 -75 -103 8 0 22c49,0 55,5 55,41l0 193c0,34 -7,34 -55,34l0 22c38,-1 48,-2 84,-2 29,0 47,1 92,2l0 -22 -14 0c-53,0 -55,-8 -55,-35l0 -109zm452 0c16,0 19,0 19,-15 0,-75 -40,-143 -133,-143 -87,0 -155,75 -155,165 0,95 76,167 165,167 88,0 123,-77 123,-94 0,-5 -3,-10 -10,-10 -7,0 -9,6 -10,8 -25,74 -89,76 -100,76 -35,0 -64,-20 -81,-44 -24,-36 -25,-79 -25,-110l207 0zm-206 -17c7,-112 72,-123 92,-123 40,0 83,30 84,123l-176 0zm496 -123c0,-12 0,-18 -8,-18 -4,0 -6,0 -15,8 -1,2 -8,8 -12,12 -23,-16 -45,-20 -70,-20 -95,0 -119,52 -119,89 0,24 10,42 27,58 24,23 52,28 89,34 37,8 49,10 65,22 7,6 25,20 25,47 0,64 -73,64 -83,64 -74,0 -93,-62 -102,-101 -2,-7 -2,-11 -11,-11 -10,0 -10,5 -10,18l0 93c0,12 0,19 8,19 5,0 5,-1 19,-14 2,-5 10,-14 14,-18 30,30 64,32 82,32 89,0 120,-52 120,-101 0,-32 -14,-52 -30,-68 -25,-24 -51,-29 -105,-40 -18,-3 -71,-13 -71,-54 0,-23 16,-53 82,-53 78,0 84,60 85,78 1,8 1,13 10,13 10,0 10,-5 10,-19l0 -70zm334 140c16,0 20,0 20,-15 0,-75 -41,-143 -134,-143 -86,0 -155,75 -155,165 0,95 77,167 165,167 88,0 124,-77 124,-94 0,-5 -4,-10 -10,-10 -8,0 -10,6 -11,8 -24,74 -89,76 -100,76 -34,0 -64,-20 -81,-44 -24,-36 -24,-79 -24,-110l206 0zm-206 -17c7,-112 72,-123 92,-123 40,0 84,30 84,123l-176 0zm382 -5c0,-76 54,-114 100,-114 43,0 52,36 52,79l0 167c0,34 -8,34 -56,34l0 22c35,-1 48,-2 83,-2 35,0 44,1 83,2l0 -22c-37,0 -55,0 -56,-23l0 -139c0,-60 0,-81 -20,-106 -17,-21 -45,-30 -81,-30 -67,0 -98,50 -108,70l-1 0 0 -70 -105 8 0 22c49,0 56,5 56,41l0 193c0,34 -8,34 -56,34l0 22c34,-1 48,-2 82,-2 35,0 45,1 83,2l0 -22c-48,0 -56,0 -56,-34l0 -132zm493 -102l0 -22 -105 0 0 -133 -21 0c0,60 -26,135 -96,137l0 18 63 0 0 200c0,81 59,98 97,98 49,0 74,-46 74,-98l0 -41 -20 0 0 39c0,54 -23,80 -49,80 -48,0 -48,-64 -48,-77l0 -201 105 0zm301 238c4,30 25,56 56,56 18,0 63,-10 63,-68l0 -41 -20 0 0 40c0,8 0,44 -26,44 -26,0 -26,-35 -26,-46l0 -127c0,-41 0,-66 -33,-96 -26,-24 -61,-34 -97,-34 -61,0 -112,30 -112,76 0,23 15,35 34,35 20,0 33,-14 33,-33 0,-31 -31,-35 -32,-35 19,-19 54,-25 75,-25 37,0 78,27 78,91l0 24c-39,1 -93,5 -142,28 -52,25 -68,63 -68,92 0,59 71,79 119,79 60,0 88,-40 98,-60zm-7 -50c0,70 -54,92 -86,92 -34,0 -66,-25 -66,-61 0,-48 42,-98 152,-103l0 72zm366 -188l0 -22 -105 0 0 -133 -20 0c-1,60 -26,135 -96,137l0 18 63 0 0 200c0,81 58,98 97,98 48,0 73,-46 73,-98l0 -41 -20 0 0 39c0,54 -22,80 -48,80 -49,0 -49,-64 -49,-77l0 -201 105 0zm187 -30l-104 8 0 22c46,0 53,5 53,40l0 194c0,34 -8,34 -56,34l0 22c32,-1 48,-2 79,-2 12,0 42,0 78,2l0 -22c-47,0 -50,-4 -50,-32l0 -266zm2 -126c0,-22 -17,-39 -39,-39 -22,0 -39,18 -39,39 0,21 17,39 39,39 22,0 39,-17 39,-39zm422 292c0,-95 -76,-170 -165,-170 -92,0 -165,77 -165,170 0,90 75,162 165,162 92,0 165,-73 165,-162zm-165 142c-36,0 -66,-18 -83,-47 -19,-30 -20,-68 -20,-102 0,-27 0,-68 19,-97 21,-37 57,-48 84,-48 41,0 71,23 85,48 17,30 17,67 17,97 0,27 0,69 -18,101 -20,33 -53,48 -84,48zm320 -176c0,-76 55,-114 100,-114 43,0 52,36 52,79l0 167c0,34 -7,34 -55,34l0 22c34,-1 48,-2 82,-2 35,0 44,1 83,2l0 -22c-37,0 -55,0 -56,-23l0 -139c0,-60 0,-81 -20,-106 -17,-21 -44,-30 -81,-30 -67,0 -98,50 -108,70l-1 0 0 -70 -105 8 0 22c49,0 56,5 56,41l0 193c0,34 -8,34 -56,34l0 22c34,-1 48,-2 83,-2 34,0 44,1 82,2l0 -22c-48,0 -56,0 -56,-34l0 -132z"/>
  <path class="fil3" d="M10091 23052c0,-4 -2,-6 -6,-11 -94,-86 -122,-216 -122,-343 0,-112 22,-248 124,-345 3,-3 4,-5 4,-9 0,-5 -4,-8 -9,-8 -8,0 -74,52 -113,131 -34,70 -52,144 -52,230 0,53 7,135 47,221 42,89 110,142 118,142 5,0 9,-3 9,-8zm198 -609c-4,-9 -4,-14 -4,-14 0,-22 37,-22 58,-22l0 -22c-33,2 -69,2 -103,2 -30,0 -41,-1 -92,-2l0 22c52,0 60,3 71,28l175 444c4,11 6,16 18,16 11,0 14,-4 17,-14l168 -425c15,-39 45,-49 79,-49l0 -22c-25,2 -46,2 -71,2 -31,0 -45,-1 -81,-2l0 22c36,1 52,17 52,36 0,6 -1,7 -4,15l-138 351 -145 -366zm629 270c16,0 20,0 20,-15 0,-74 -41,-143 -134,-143 -86,0 -155,75 -155,165 0,95 76,167 165,167 88,0 124,-77 124,-94 0,-5 -4,-9 -10,-9 -8,0 -10,5 -11,8 -24,73 -89,75 -100,75 -34,0 -64,-20 -81,-44 -24,-36 -24,-79 -24,-110l206 0zm-206 -17c7,-112 72,-123 92,-123 40,0 84,30 84,123l-176 0zm511 -101c-15,3 -30,13 -30,34 0,18 15,33 34,33 18,0 34,-12 34,-35 0,-45 -51,-72 -115,-72 -92,0 -162,77 -162,168 0,93 75,164 161,164 100,0 124,-87 124,-94 0,-9 -8,-9 -10,-9 -8,0 -8,2 -13,14 -16,50 -57,69 -94,69 -46,0 -106,-38 -106,-145 0,-113 58,-147 102,-147 9,0 48,2 75,20zm302 -5l0 -23 -105 0 0 -133 -20 0c-1,61 -26,135 -97,137l0 19 63 0 0 199c0,82 59,98 97,98 49,0 74,-46 74,-98l0 -41 -20 0 0 39c0,54 -22,80 -48,80 -49,0 -49,-64 -49,-77l0 -200 105 0zm404 135c0,-95 -75,-170 -164,-170 -92,0 -165,77 -165,170 0,91 75,162 164,162 92,0 165,-73 165,-162zm-164 142c-36,0 -67,-18 -84,-46 -18,-31 -19,-69 -19,-103 0,-26 0,-68 18,-97 22,-37 58,-48 84,-48 41,0 71,23 85,48 17,30 18,67 18,97 0,27 0,69 -18,101 -21,33 -54,48 -84,48zm314 -154c0,-29 8,-136 91,-136l0 1c-2,1 -13,9 -13,27 0,19 15,32 31,32 16,0 32,-11 32,-33 0,-23 -21,-45 -54,-45 -43,0 -74,31 -91,75l0 0 0 -75 -103 8 0 23c49,0 56,5 56,40l0 193c0,34 -8,34 -56,34l0 22c38,-1 48,-2 85,-2 29,0 46,1 92,2l0 -22 -15 0c-53,0 -55,-8 -55,-35l0 -109zm660 -139c0,-13 0,-19 -9,-19 -3,0 -5,0 -14,8 -2,2 -8,8 -13,12 -22,-16 -45,-20 -69,-20 -96,0 -120,53 -120,90 0,23 10,42 27,58 25,22 52,27 89,34 37,7 49,9 65,21 8,6 26,20 26,47 0,64 -73,64 -84,64 -73,0 -92,-61 -101,-101 -2,-7 -3,-11 -12,-11 -10,0 -10,6 -10,19l0 92c0,13 0,19 9,19 4,0 5,-1 18,-14 3,-5 11,-14 15,-18 30,30 63,32 81,32 90,0 121,-52 121,-100 0,-33 -15,-53 -31,-69 -24,-24 -50,-29 -104,-39 -19,-4 -72,-13 -72,-55 0,-23 17,-53 83,-53 78,0 83,60 85,78 0,9 0,13 10,13 10,0 10,-5 10,-19l0 -69zm175 62c25,-42 65,-57 95,-57 57,0 100,66 100,144 0,82 -49,146 -108,146 -33,0 -60,-19 -77,-44 -10,-15 -10,-16 -10,-30l0 -159zm0 208c19,19 44,43 91,43 87,0 166,-69 166,-164 0,-91 -71,-164 -156,-164 -39,0 -76,16 -103,46l0 -46 -107 8 0 23c51,0 56,4 56,35l0 339c0,33 -8,33 -56,33l0 23c34,-2 48,-2 82,-2 35,0 45,0 83,2l0 -23c-48,0 -56,0 -56,-33l0 -120zm530 -17c3,31 24,57 55,57 18,0 64,-11 64,-69l0 -41 -20 0 0 40c0,8 0,44 -26,44 -26,0 -26,-35 -26,-46l0 -127c0,-41 0,-66 -33,-95 -27,-24 -62,-35 -98,-35 -61,0 -111,30 -111,77 0,22 15,34 34,34 19,0 33,-14 33,-33 0,-31 -32,-35 -32,-35 19,-19 54,-25 75,-25 37,0 78,27 78,91l0 24c-39,2 -93,5 -142,28 -52,26 -68,63 -68,92 0,60 70,79 119,79 60,0 87,-40 98,-60zm-7 -50c0,70 -54,92 -86,92 -34,0 -66,-25 -66,-61 0,-48 41,-98 152,-103l0 72zm394 -182c-15,3 -30,13 -30,34 0,18 15,33 34,33 18,0 34,-12 34,-35 0,-45 -51,-72 -115,-72 -92,0 -162,77 -162,168 0,93 75,164 161,164 100,0 124,-87 124,-94 0,-9 -8,-9 -10,-9 -8,0 -8,2 -13,14 -16,50 -57,69 -94,69 -46,0 -106,-38 -106,-145 0,-113 58,-147 102,-147 9,0 48,2 75,20zm356 118c16,0 20,0 20,-15 0,-74 -41,-143 -133,-143 -87,0 -155,75 -155,165 0,95 76,167 164,167 88,0 124,-77 124,-94 0,-5 -4,-9 -10,-9 -7,0 -10,5 -10,8 -25,73 -89,75 -100,75 -35,0 -65,-20 -81,-44 -24,-36 -25,-79 -25,-110l206 0zm-205 -17c6,-112 71,-123 92,-123 39,0 83,30 84,123l-176 0zm462 1c0,-59 -8,-139 -46,-219 -43,-89 -110,-142 -119,-142 -7,0 -8,6 -8,8 0,4 1,6 6,11 42,38 122,136 122,342 0,104 -19,248 -124,346 -1,2 -4,5 -4,9 0,2 1,8 8,8 9,0 74,-53 113,-132 35,-69 52,-144 52,-231z"/>
  <path class="fil1" d="M16225 6621c0,-12 0,-18 -9,-18 -5,0 -7,2 -11,8l-37 55c-23,-23 -65,-63 -138,-63 -140,0 -259,116 -259,262 0,148 118,264 260,264 68,0 120,-26 140,-61 13,19 39,44 46,44 8,0 8,-6 8,-18l0 -124c0,-29 3,-33 51,-33l0 -22c-47,2 -55,2 -93,2 -28,0 -91,0 -116,-2l0 22 23 0c68,0 70,9 70,36l0 45c0,89 -110,89 -120,89 -59,0 -195,-36 -195,-242 0,-202 132,-240 192,-240 71,0 147,54 165,172 1,9 2,13 11,13 12,0 12,-4 12,-19l0 -170zm217 326c0,-29 8,-136 91,-136l0 1c-2,1 -13,9 -13,27 0,19 15,32 32,32 15,0 32,-11 32,-33 0,-23 -22,-45 -55,-45 -43,0 -74,30 -90,75l-1 0 0 -75 -103 8 0 22c49,0 56,6 56,41l0 193c0,34 -8,34 -56,34l0 22c38,-1 48,-2 85,-2 29,0 46,1 92,2l0 -22 -15 0c-53,0 -55,-8 -55,-35l0 -109zm513 12c0,-95 -75,-170 -164,-170 -92,0 -165,77 -165,170 0,90 75,162 164,162 92,0 165,-73 165,-162zm-164 142c-37,0 -67,-18 -84,-47 -18,-30 -19,-68 -19,-102 0,-26 0,-68 18,-97 22,-37 58,-48 84,-48 41,0 71,23 85,48 17,30 18,67 18,97 0,27 0,69 -18,101 -21,33 -54,48 -84,48zm472 -109c0,65 -36,111 -88,111 -61,0 -64,-31 -64,-70l0 -240 -110 8 0 22c56,0 56,3 56,67l0 109c0,47 0,77 34,103 21,14 50,19 79,19 38,0 73,-17 94,-60l1 0 0 60 107 -8 0 -22c-49,0 -56,-5 -56,-41l0 -257 -109 8 0 22c49,0 56,6 56,41l0 128zm257 -122c25,-42 64,-57 95,-57 56,0 100,65 100,144 0,82 -49,146 -108,146 -33,0 -60,-19 -78,-44 -9,-15 -9,-16 -9,-30l0 -159zm0 208c19,19 43,43 91,43 86,0 166,-69 166,-164 0,-92 -71,-164 -156,-164 -39,0 -76,16 -103,46l0 -46 -107 8 0 22c51,0 55,5 55,36l0 339c0,33 -8,33 -55,33l0 23c34,-2 47,-3 82,-3 35,0 44,1 83,3l0 -23c-48,0 -56,0 -56,-33l0 -120zm880 -119c0,-95 -75,-170 -164,-170 -92,0 -166,77 -166,170 0,90 76,162 165,162 92,0 165,-73 165,-162zm-164 142c-37,0 -67,-18 -84,-47 -19,-30 -19,-68 -19,-102 0,-26 0,-68 18,-97 22,-37 58,-48 84,-48 41,0 71,23 85,48 17,30 18,67 18,97 0,27 0,69 -18,101 -21,33 -54,48 -84,48zm402 -278l0 -22 -86 0 0 -82c0,-66 36,-98 67,-98 7,0 14,1 21,4 -7,3 -18,12 -18,30 0,19 13,32 31,32 20,0 33,-14 33,-33 0,-28 -28,-51 -67,-51 -57,0 -116,42 -116,115l0 83 -57 0 0 22 57 0 0 234c0,34 -8,34 -56,34l0 22c38,-1 48,-2 85,-2 29,0 46,1 92,2l0 -22 -15 0c-53,0 -55,-8 -55,-35l0 -233 84 0z"/>
  <path class="fil1" d="M15605 7693c0,-13 0,-19 -9,-19 -4,0 -5,0 -14,9 -2,1 -8,8 -13,11 -22,-16 -45,-20 -69,-20 -96,0 -120,53 -120,90 0,23 10,42 27,58 25,22 52,27 89,34 37,7 49,9 65,21 8,6 26,20 26,47 0,64 -74,64 -84,64 -74,0 -92,-61 -101,-100 -2,-8 -3,-12 -12,-12 -10,0 -10,6 -10,19l0 92c0,13 0,19 9,19 4,0 5,0 18,-14 3,-5 11,-14 14,-18 31,30 64,32 82,32 89,0 121,-52 121,-100 0,-33 -15,-53 -31,-69 -24,-24 -51,-29 -104,-39 -19,-4 -72,-13 -72,-55 0,-23 17,-53 83,-53 78,0 83,60 84,78 1,9 1,13 11,13 10,0 10,-5 10,-19l0 -69zm176 50c-5,-10 -5,-14 -5,-16 0,-18 25,-18 40,-18l0 -23c-35,2 -50,2 -80,2 -2,0 -44,0 -72,-2l0 23c33,0 46,1 55,21l115 268 -19 43c-15,38 -36,88 -84,88 -18,0 -30,-10 -32,-11 6,-1 26,-7 26,-31 0,-19 -14,-31 -30,-31 -19,0 -32,12 -32,31 0,33 31,60 68,60 48,0 79,-42 96,-82l131 -306c8,-19 21,-49 68,-50l0 -23c-24,2 -46,2 -56,2 -20,0 -42,0 -63,-2l0 23c34,1 34,27 34,30 0,8 -3,15 -6,21l-73 172 -81 -189zm395 68c0,-78 57,-115 100,-115 40,0 53,29 53,79l0 168c0,33 -8,33 -56,33l0 22c34,-1 48,-2 83,-2 35,0 44,1 82,2l0 -22c-47,0 -55,0 -55,-33l0 -132c0,-78 56,-115 100,-115 39,0 52,29 52,79l0 168c0,33 -8,33 -55,33l0 22c34,-1 47,-2 82,-2 35,0 44,1 83,2l0 -22c-37,0 -55,0 -56,-23l0 -139c0,-63 0,-83 -24,-110 -15,-17 -44,-26 -77,-26 -53,0 -88,31 -108,69 -9,-43 -38,-69 -99,-69 -58,0 -93,38 -108,71l-1 0 0 -71 -105 8 0 23c49,0 56,5 56,40l0 194c0,33 -8,33 -56,33l0 22c34,-1 48,-2 82,-2 35,0 45,1 83,2l0 -22c-48,0 -56,0 -56,-33l0 -132zm620 0c0,-78 57,-115 100,-115 40,0 53,29 53,79l0 168c0,33 -8,33 -56,33l0 22c34,-1 48,-2 83,-2 34,0 44,1 82,2l0 -22c-48,0 -55,0 -55,-33l0 -132c0,-78 56,-115 99,-115 40,0 53,29 53,79l0 168c0,33 -8,33 -55,33l0 22c34,-1 47,-2 82,-2 35,0 44,1 83,2l0 -22c-37,0 -55,0 -56,-23l0 -139c0,-63 0,-83 -24,-110 -15,-17 -44,-26 -77,-26 -53,0 -88,31 -108,69 -9,-43 -38,-69 -99,-69 -58,0 -93,38 -109,71l0 0 0 -71 -105 8 0 23c49,0 56,5 56,40l0 194c0,33 -8,33 -56,33l0 22c34,-1 48,-2 82,-2 35,0 45,1 83,2l0 -22c-48,0 -56,0 -56,-33l0 -132zm775 21c16,0 20,0 20,-15 0,-74 -41,-143 -134,-143 -87,0 -155,75 -155,165 0,95 76,167 165,167 88,0 124,-77 124,-94 0,-5 -4,-9 -11,-9 -7,0 -9,5 -10,8 -24,74 -89,75 -100,75 -34,0 -64,-20 -81,-44 -24,-36 -24,-79 -24,-110l206 0zm-206 -17c7,-111 72,-123 92,-123 40,0 84,30 84,123l-176 0zm483 -106l0 -23 -105 0 0 -133 -21 0c0,61 -26,135 -96,138l0 18 63 0 0 200c0,81 59,97 97,97 49,0 74,-46 74,-97l0 -42 -20 0 0 39c0,54 -23,80 -49,80 -48,0 -48,-64 -48,-77l0 -200 105 0zm182 123c0,-29 8,-136 91,-136l0 1c-2,1 -13,9 -13,27 0,19 15,32 32,32 15,0 31,-11 31,-33 0,-23 -21,-45 -54,-45 -43,0 -74,31 -90,76l-1 0 0 -76 -103 8 0 23c49,0 56,5 56,40l0 194c0,33 -8,33 -56,33l0 22c38,-1 48,-2 85,-2 29,0 46,1 92,2l0 -22 -15 0c-53,0 -55,-8 -55,-35l0 -109zm296 -154l-105 8 0 23c47,0 53,4 53,39l0 195c0,33 -8,33 -55,33l0 22c32,-1 47,-2 79,-2 12,0 42,0 78,2l0 -22c-47,0 -50,-4 -50,-32l0 -266zm2 -126c0,-22 -17,-39 -39,-39 -23,0 -39,18 -39,39 0,21 16,39 39,39 22,0 39,-17 39,-39zm361 280c16,0 19,0 19,-15 0,-74 -40,-143 -133,-143 -87,0 -155,75 -155,165 0,95 76,167 164,167 89,0 124,-77 124,-94 0,-5 -3,-9 -10,-9 -7,0 -9,5 -10,8 -25,74 -89,75 -100,75 -35,0 -65,-20 -81,-44 -24,-36 -25,-79 -25,-110l207 0zm-206 -17c6,-111 72,-123 92,-123 40,0 83,30 84,123l-176 0zm496 -122c0,-13 0,-19 -9,-19 -3,0 -5,0 -14,9 -2,1 -8,8 -12,11 -23,-16 -45,-20 -70,-20 -96,0 -120,53 -120,90 0,23 11,42 27,58 25,22 52,27 89,34 37,7 50,9 66,21 7,6 25,20 25,47 0,64 -73,64 -83,64 -74,0 -93,-61 -102,-100 -2,-8 -3,-12 -11,-12 -11,0 -11,6 -11,19l0 92c0,13 0,19 9,19 5,0 5,0 18,-14 3,-5 11,-14 15,-18 30,30 64,32 82,32 89,0 120,-52 120,-100 0,-33 -15,-53 -31,-69 -24,-24 -50,-29 -104,-39 -19,-4 -72,-13 -72,-55 0,-23 17,-53 83,-53 78,0 83,60 85,78 0,9 0,13 10,13 10,0 10,-5 10,-19l0 -69z"/>
  <line class="fil4 str0" x1="7145" y1="13278" x2="11553" y2= "9542" />
  <path class="fil0" d="M6925 13465c75,-43 213,-96 323,-116l-156 -184c-37,105 -112,232 -167,300z"/>
  <path class="fil0" d="M8911 10729l-411 0 -6 114 20 0c1,-19 3,-47 9,-56 4,-7 47,-7 55,-7l255 0c2,0 50,0 55,6 7,8 9,38 10,57l20 0 -7 -114zm-415 490l420 0 6 -121 -20 0c-1,18 -2,50 -9,62 -4,8 -42,8 -59,8l-256 0c-7,0 -55,0 -59,-7 -7,-11 -9,-42 -9,-63l-21 0 7 121zm86 -281l0 -37 -20 0 0 126 20 0 0 -37 248 0 0 37 20 0 0 -126 -20 0 0 37 -248 0z"/>
  <line class="fil4 str0" x1="11415" y1="19124" x2="6864" y2= "14546" />
  <path class="fil0" d="M11620 19329c-49,-72 -113,-205 -142,-313l-171 170c108,29 241,94 313,143z"/>
  <path class="fil0" d="M8778 16604c-19,19 -36,33 -58,33 -16,0 -30,-6 -52,-19 -10,-5 -27,-14 -44,-14 -27,0 -40,14 -80,57l13 12c20,-19 37,-33 59,-33 16,0 30,6 52,19 10,5 26,14 44,14 27,0 40,-14 79,-57l-13 -12z"/>
  <path class="fil0" d="M8635 17153c-101,-23 -102,-144 -102,-182 0,-12 -1,-49 -16,-75 -16,-27 -38,-27 -52,-27l-25 0c-12,0 -20,0 -20,10 0,7 7,8 14,9 37,5 38,68 38,97 0,20 6,76 34,116 31,45 74,65 129,73l0 39c0,27 -3,36 -69,36l-23 0 0 22c25,-2 94,-2 123,-2 29,0 97,0 122,2l0 -22 -23 0c-66,0 -69,-9 -69,-36l0 -39c146,-18 167,-128 167,-208 0,-10 1,-73 42,-78 3,-1 10,-2 10,-9 0,-10 -8,-10 -19,-10l-25 0c-36,0 -68,16 -69,113 0,69 -21,153 -106,171l0 -318c0,-27 3,-36 69,-36l23 0 0 -22c-25,2 -93,2 -122,2 -29,0 -98,0 -123,-2l0 22 23 0c66,0 69,9 69,36l0 318z"/>
  <line class="fil4 str1" x1="12210" y1="9542" x2="12186" y2= "18952" />
  <path class="fil1" d="M12185 19241c17,-86 65,-225 122,-321l-242 -1c57,97 104,236 120,322z"/>
  <path class="fil1" d="M12779 14202c0,-27 3,-35 69,-35l23 0 0 -23c-25,3 -93,3 -122,3 -29,0 -97,0 -123,-3l0 23 23 0c66,0 69,8 69,35l0 40c-122,12 -195,81 -195,149 0,71 77,139 195,150l0 40c0,27 -3,36 -69,36l-23 0 0 22c26,-2 94,-2 123,-2 29,0 97,0 122,2l0 -22 -23 0c-66,0 -69,-9 -69,-36l0 -40c118,-8 199,-77 199,-149 0,-75 -83,-141 -199,-150l0 -40zm-61 320c-79,-9 -123,-52 -123,-130 0,-72 37,-120 123,-131l0 261zm61 -262c69,7 127,41 127,131 0,83 -49,123 -127,132l0 -263z"/>
  <path class="fil4 str1" d="M17048 8703c-1364,-658 -2503,-712 -3855,-168"/>
  <path class="fil1" d="M12927 8649c85,-18 232,-28 343,-14l-94 -222c-67,89 -177,188 -249,236z"/>
  <line class="fil4 str1" x1="17649" y1="9542" x2="17649" y2= "18919" />
  <path class="fil1" d="M17649 19209c16,-86 64,-225 120,-322l-241 0c56,97 105,236 121,322z"/>
  <path class="fil1" d="M17960 14953c-3,10 -3,11 -3,13 0,12 9,22 23,22 17,0 26,-15 28,-17 4,-7 30,-115 51,-202 16,32 42,54 80,54 94,0 198,-114 198,-234 0,-85 -53,-131 -112,-131 -78,0 -162,81 -187,179l-78 316zm178 -148c-56,0 -69,-64 -69,-72 0,-3 4,-19 6,-29 23,-90 31,-119 49,-152 34,-58 75,-76 99,-76 30,0 56,23 56,79 0,44 -23,134 -45,174 -27,50 -65,76 -96,76z"/>
  <path class="fil1" d="M17972 19675c0,-3 -2,-8 -9,-8 -2,0 -3,1 -12,10l-56 61c-7,-11 -44,-71 -134,-71 -179,0 -360,178 -360,364 0,128 89,221 219,221 36,0 72,-7 101,-19 40,-17 56,-33 70,-50 7,21 28,50 36,50 4,0 6,-2 6,-3 1,-1 10,-32 14,-49l15 -62c3,-14 7,-27 10,-41 9,-36 10,-38 56,-39 4,0 13,0 13,-16 0,-5 -4,-9 -11,-9 -18,0 -66,3 -84,3 -25,0 -88,-3 -113,-3 -7,0 -17,0 -17,17 0,8 7,8 24,8 1,0 24,0 43,2 21,2 25,5 25,15 0,8 -9,44 -17,74 -22,88 -127,97 -155,97 -78,0 -162,-46 -162,-169 0,-25 8,-158 93,-262 43,-55 121,-104 201,-104 82,0 129,62 129,155 0,32 -2,33 -2,41 0,8 9,8 12,8 10,0 10,-1 14,-16l51 -205zm322 72c7,-29 10,-37 85,-37 24,0 31,0 31,-16 0,-9 -9,-9 -13,-9 -27,0 -93,2 -119,2 -24,0 -83,-2 -107,-2 -6,0 -15,0 -15,16 0,9 7,9 22,9 2,0 17,0 31,1 14,2 21,3 21,13 0,3 0,6 -3,15l-108 432c-8,32 -9,38 -73,38 -14,0 -22,0 -22,16 0,9 8,9 22,9l373 0c19,0 20,0 25,-13l63 -174c3,-9 3,-11 3,-12 0,-3 -2,-8 -9,-8 -7,0 -8,4 -14,16 -27,75 -63,166 -202,166l-76 0c-11,0 -12,0 -17,-1 -8,0 -11,-1 -11,-8 0,-2 0,-4 4,-18l109 -435z"/>
  <path class="fil1" d="M18807 20427c0,-2 0,-4 -13,-17 -101,-102 -127,-254 -127,-377 0,-140 31,-280 130,-381 10,-9 10,-11 10,-13 0,-6 -3,-8 -8,-8 -8,0 -80,54 -128,157 -41,88 -50,177 -50,245 0,63 8,160 53,251 48,99 117,151 125,151 5,0 8,-2 8,-8z"/>
  <path class="fil1" d="M19289 19505l-12 -12c0,1 -31,39 -66,39 -19,0 -39,-12 -53,-20 -21,-13 -36,-19 -50,-19 -30,0 -46,18 -87,63l13 12c0,-1 31,-39 66,-39 19,0 39,12 53,21 21,12 36,18 49,18 31,0 46,-18 87,-63z"/>
  <path class="fil1" d="M19071 20165c12,-99 12,-171 12,-184 0,-57 0,-296 -146,-296 -28,0 -56,22 -56,33 0,6 4,6 16,7 117,10 127,195 127,285 0,82 -11,178 -20,232 -2,10 -2,12 -2,15 0,4 0,13 6,13 8,0 203,-148 305,-304 41,-63 72,-134 72,-188 0,-68 -45,-93 -78,-93 -23,0 -35,50 -35,61 0,12 4,12 14,13 54,6 64,49 64,68 0,65 -140,230 -279,338z"/>
  <path class="fil1" d="M19646 20033c0,-63 -9,-160 -53,-251 -49,-99 -118,-151 -126,-151 -5,0 -8,3 -8,8 0,2 0,4 15,18 79,80 125,208 125,376 0,138 -30,279 -130,381 -10,9 -10,11 -10,13 0,5 3,8 8,8 8,0 80,-54 128,-157 41,-88 51,-177 51,-245z"/>
  <path class="fil4 str1" d="M17076 19209c-1529,-580 -2761,-512 -4175,237"/>
  <path class="fil1" d="M12647 19587c83,-27 228,-52 340,-50l-117 -211c-57,96 -156,206 -223,261z"/>
  <path class="fil4 str2" d="M6510 14546c927,2573 2350,4061 4839,5040"/>
  <path class="fil0" d="M11620 19689c-75,-46 -188,-141 -258,-228l-86 226c110,-18 258,-14 344,2z"/>
  <path class="fil0" d="M7486 17839c-101,-23 -102,-144 -102,-182 0,-12 -2,-49 -16,-75 -16,-27 -38,-27 -52,-27l-26 0c-11,0 -19,0 -19,10 0,7 6,8 14,8 37,6 38,69 38,98 0,20 6,76 34,116 31,45 74,65 129,73l0 39c0,27 -3,36 -69,36l-23 0 0 22c25,-2 93,-2 122,-2 29,0 97,0 123,2l0 -22 -23 0c-66,0 -69,-9 -69,-36l0 -39c145,-18 166,-128 167,-208 0,-10 1,-73 41,-79 4,0 11,-1 11,-8 0,-10 -8,-10 -19,-10l-26 0c-35,0 -67,16 -68,113 0,69 -21,153 -106,171l0 -318c0,-27 3,-36 69,-36l23 0 0 -22c-26,2 -94,2 -123,2 -29,0 -97,0 -122,-2l0 22 23 0c66,0 69,9 69,36l0 318z"/>
  <path class="fil0" d="M7982 17731c0,-14 -2,-14 -17,-14 -31,31 -81,31 -98,31l0 18c13,0 44,0 73,-13l0 244c0,16 0,22 -49,22l-21 0 0 19c26,-2 64,-2 91,-2 27,0 65,0 91,2l0 -19 -20 0c-50,0 -50,-6 -50,-22l0 -266z"/>
  <path class="fil4 str2" d="M6208 14546c-513,2857 2266,5764 5125,5486"/>
  <path class="fil0" d="M11620 19994c-87,-5 -232,-35 -335,-78l31 239c89,-68 221,-134 304,-161z"/>
  <path class="fil0" d="M6664 18658c-101,-23 -102,-144 -102,-183 0,-11 -1,-48 -16,-74 -16,-27 -38,-27 -52,-27l-25 0c-12,0 -20,0 -20,9 0,8 7,8 14,9 38,6 38,69 38,98 0,19 6,75 35,116 31,45 73,65 128,72l0 40c0,27 -2,35 -68,35l-24 0 0 23c26,-2 94,-2 123,-2 29,0 97,0 122,2l0 -23 -23 0c-66,0 -69,-8 -69,-35l0 -40c146,-17 167,-127 168,-207 0,-10 0,-73 41,-79 4,-1 11,-1 11,-9 0,-9 -8,-9 -20,-9l-25 0c-36,0 -68,15 -68,112 -1,70 -22,154 -107,172l0 -319c0,-27 3,-35 69,-35l23 0 0 -23c-25,2 -93,2 -122,2 -29,0 -97,0 -123,-2l0 23 24 0c66,0 68,8 68,35l0 319z"/>
  <path class="fil0" d="M7129 18696c41,0 68,28 68,77 0,53 -31,76 -67,76 -13,0 -62,-3 -84,-31 19,-2 26,-14 26,-27 0,-17 -11,-28 -27,-28 -13,0 -28,8 -28,29 0,47 53,74 115,74 71,0 119,-45 119,-93 0,-35 -27,-73 -84,-87 38,-13 69,-44 69,-83 0,-39 -46,-68 -104,-68 -56,0 -99,26 -99,66 0,21 16,26 25,26 13,0 26,-8 26,-25 0,-15 -11,-24 -24,-26 23,-25 67,-25 71,-25 25,0 56,12 56,52 0,26 -15,73 -63,76 -9,0 -22,1 -26,1 -5,1 -11,1 -11,8 0,8 6,8 14,8l28 0z"/>
  <path class="fil4 str2" d="M6925 14213c2524,920 3968,2310 4921,4757"/>
  <path class="fil0" d="M11948 19241c-15,-86 -20,-233 -1,-343l-226 85c87,70 181,184 227,258z"/>
  <path class="fil0" d="M9914 15506c-101,-24 -102,-144 -102,-183 0,-11 -1,-48 -16,-74 -16,-27 -38,-27 -52,-27l-25 0c-12,0 -20,0 -20,9 0,7 7,8 14,9 38,6 38,69 38,98 0,19 6,75 34,115 31,45 74,66 129,73l0 40c0,27 -3,35 -69,35l-23 0 0 23c26,-2 94,-2 123,-2 29,0 97,0 122,2l0 -23 -23 0c-66,0 -69,-8 -69,-35l0 -40c146,-17 167,-128 167,-207 0,-10 1,-73 42,-79 3,-1 11,-2 11,-9 0,-9 -8,-9 -20,-9l-25 0c-36,0 -68,15 -68,112 -1,70 -22,154 -107,172l0 -319c0,-27 3,-36 69,-36l23 0 0 -22c-25,2 -93,2 -122,2 -29,0 -97,0 -123,-2l0 22 23 0c66,0 69,9 69,36l0 319z"/>
  <path class="fil0" d="M10497 15614l-18 0c-1,7 -6,38 -13,44 -4,3 -43,3 -50,3l-90 0 62 -51c16,-13 59,-43 74,-58 15,-14 35,-39 35,-73 0,-61 -55,-96 -120,-96 -62,0 -105,41 -105,86 0,25 20,28 26,28 12,0 26,-9 26,-26 0,-11 -7,-26 -28,-26 11,-25 41,-43 74,-43 51,0 78,38 78,77 0,34 -23,69 -57,100l-114 105c-5,5 -5,5 -5,20l210 0 15 -90z"/>
  <polygon class="fil4 str3" points="10556,14835 10556,14835 10556,14835 "/>
 </g>
</svg>
